<svg width="25" height="27" viewBox="0 0 25 27" fill="none" xmlns="http://www.w3.org/2000/svg">
<path d="M2.08496 24.7482C2.08496 25.9875 3.01758 27 4.16992 27H20.835C21.9824 27 22.9199 25.9928 22.9199 24.7482V10.125H2.08496V24.7482ZM17.71 13.5H19.7949V23.625H17.71V13.5ZM11.46 13.5H13.5449V23.625H11.46V13.5ZM5.20996 13.5H7.29492V23.625H5.20996V13.5ZM23.96 4.49824H17.71V2.25176C17.71 1.00723 16.7725 0 15.625 0H9.375C8.22754 0 7.29004 1.00723 7.29004 2.25176V4.50352H1.04004C0.463867 4.49824 0 5.00449 0 5.62676V6.75C0 7.37227 0.463867 7.87324 1.04004 7.87324H23.9551C24.5312 7.87324 24.9951 7.37227 24.9951 6.75V5.62676C25 5.00449 24.5361 4.49824 23.96 4.49824ZM15.625 4.49824H9.375V2.25176H15.625V4.49824Z" fill="white"/>
</svg>
