<svg xmlns="http://www.w3.org/2000/svg" xmlns:xlink="http://www.w3.org/1999/xlink" width="1080" zoomAndPan="magnify" viewBox="0 0 810 809.999993" height="1080" preserveAspectRatio="xMidYMid meet" version="1.0"><defs><clipPath id="f2613da2fb"><path d="M 362 684 L 454 684 L 454 738.050781 L 362 738.050781 Z M 362 684 " clip-rule="nonzero"/></clipPath><clipPath id="11ce915c76"><path d="M 362 684 L 454 684 L 454 738.050781 L 362 738.050781 Z M 362 684 " clip-rule="nonzero"/></clipPath></defs><path fill="#66241c" d="M 226.308594 660.664062 C 223.230469 663.527344 219.886719 666.335938 216.328125 669.035156 C 202.148438 679.816406 186.976562 686.371094 172.449219 687.464844 C 156.421875 688.667969 141.46875 683.585938 129.453125 670.722656 C 128.0625 669.222656 126.726562 667.644531 125.414062 665.933594 L 125.414062 665.878906 C 110.859375 646.753906 108.800781 623.375 115.59375 600.101562 C 122.5 576.511719 138.820312 552.890625 160.25 534.621094 L 160.25 534.566406 L 161.988281 533.070312 C 188.691406 510.652344 219.21875 492.515625 244.476562 481.578125 C 274.308594 468.65625 299.511719 466.304688 309.0625 477.539062 L 309.195312 477.671875 C 322.199219 493.160156 314.332031 523.546875 298.199219 555.832031 C 277.4375 597.535156 242.574219 645.496094 226.308594 660.664062 Z M 199.285156 646.59375 C 201.71875 644.746094 204.316406 642.527344 207.042969 639.984375 C 221.597656 626.398438 253.4375 582.261719 272.914062 543.289062 C 284.367188 520.390625 291.726562 500.941406 287.578125 495.886719 C 286.265625 495.03125 273.664062 499.6875 255.6875 507.496094 C 232.78125 517.421875 204.902344 534.058594 180.183594 554.789062 L 178.550781 556.152344 L 178.523438 556.128906 C 161.1875 570.894531 148.101562 589.589844 142.726562 607.96875 C 138.335938 622.945312 139.300781 637.550781 147.863281 648.8125 L 147.890625 648.785156 C 148.609375 649.75 149.386719 650.660156 150.164062 651.488281 C 155.753906 657.480469 162.792969 659.859375 170.363281 659.273438 C 179.40625 658.605469 189.441406 654.082031 199.285156 646.59375 Z M 199.285156 646.59375 " fill-opacity="1" fill-rule="nonzero"/><path fill="#a3d9f1" d="M 216.675781 650.339844 C 189.066406 676.097656 156.210938 683.132812 136.652344 657.398438 C 112.410156 625.515625 132.289062 576.992188 169.398438 545.402344 C 221.117188 501.34375 287.871094 474.300781 298.386719 486.820312 C 319.550781 511.964844 242.65625 626.078125 216.675781 650.339844 Z M 216.675781 650.339844 " fill-opacity="1" fill-rule="evenodd"/><path fill="#54afe8" d="M 228.636719 615.9375 C 206.320312 636.75 179.78125 642.445312 163.96875 621.636719 C 144.382812 595.875 162.632812 557.277344 192.4375 531.542969 C 233.933594 495.699219 288.058594 473.953125 296.675781 484.199219 C 313.769531 504.5 249.613281 596.332031 228.636719 615.9375 Z M 228.636719 615.9375 " fill-opacity="1" fill-rule="evenodd"/><path fill="#66241c" d="M 123.460938 639.371094 C 182.804688 611.660156 243.40625 542.136719 279.953125 500.140625 C 285.652344 493.585938 290.761719 487.730469 296.300781 481.601562 L 304.675781 489.171875 C 300.875 493.398438 295.042969 500.058594 288.515625 507.578125 C 251.378906 550.214844 189.839844 620.832031 128.25 649.589844 Z M 123.460938 639.371094 " fill-opacity="1" fill-rule="nonzero"/><path fill="#66241c" d="M 187.996094 670.933594 C 194.203125 659.300781 197.789062 646.003906 196.878906 633.808594 C 196.128906 623.777344 192.25 614.46875 184.117188 607.644531 L 191.367188 599.007812 C 202.09375 608.019531 207.207031 620.085938 208.140625 633.003906 C 209.210938 647.367188 205.066406 662.828125 197.921875 676.257812 Z M 187.996094 670.933594 " fill-opacity="1" fill-rule="nonzero"/><path fill="#66241c" d="M 145.613281 553.558594 C 159.902344 548.371094 175.792969 546.445312 189.867188 549.519531 C 202.550781 552.273438 213.761719 559.015625 221.199219 570.917969 L 211.59375 576.882812 C 205.949219 567.871094 197.304688 562.734375 187.488281 560.566406 C 175.554688 557.972656 161.855469 559.65625 149.46875 564.152344 Z M 145.613281 553.558594 " fill-opacity="1" fill-rule="nonzero"/><path fill="#66241c" d="M 146.015625 338.683594 C 142.191406 336.675781 138.125 334.777344 133.84375 333.039062 C 117.546875 326.402344 102.003906 323.917969 89.132812 326.351562 C 77.761719 328.492188 68.34375 334.832031 62.511719 345.90625 C 61.925781 347.054688 61.253906 348.5 60.53125 350.292969 C 52.855469 369.097656 56.894531 389.453125 68.425781 408.203125 L 68.371094 408.230469 C 82.125 430.539062 106.125 450.492188 134.324219 463.707031 L 134.351562 463.65625 L 135.207031 464.054688 C 174.671875 482.40625 217.15625 494.28125 250.816406 499.203125 C 278.910156 503.296875 298.816406 504.101562 301.277344 500.703125 L 301.355469 500.460938 C 305.933594 490.644531 289.183594 466.703125 265.398438 440.167969 C 226.601562 396.863281 169.773438 351.148438 146.015625 338.683594 Z M 144.464844 306.824219 C 149.09375 308.695312 153.960938 310.996094 159.074219 313.671875 C 184.863281 327.207031 245.625 375.808594 286.507812 421.363281 C 317.328125 455.738281 337.476562 490.136719 327.09375 512.390625 L 327.042969 512.363281 L 327.015625 512.390625 C 319.578125 528.253906 287.980469 533.148438 246.855469 527.15625 C 210.683594 521.886719 165.253906 509.207031 123.273438 489.683594 L 122.417969 489.28125 L 122.417969 489.226562 C 89.347656 473.765625 60.960938 449.933594 44.371094 422.996094 L 44.320312 422.996094 C 28.1875 396.808594 22.914062 367.625 34.3125 339.617188 C 35.167969 337.503906 36.265625 335.203125 37.523438 332.796875 C 47.742188 313.324219 64.144531 302.277344 83.945312 298.53125 C 102.269531 295.132812 123.273438 298.210938 144.464844 306.824219 Z M 144.464844 306.824219 " fill-opacity="1" fill-rule="nonzero"/><path fill="#a3d9f1" d="M 152.542969 326.191406 C 108.15625 302.917969 63.582031 305.378906 47.421875 344.996094 C 27.410156 394.078125 69.816406 449.078125 128.410156 476.496094 C 210.066406 514.71875 305.128906 526.0625 314.253906 506.453125 C 332.632812 466.972656 194.308594 348.097656 152.542969 326.191406 Z M 152.542969 326.191406 " fill-opacity="1" fill-rule="evenodd"/><path fill="#54afe8" d="M 179.859375 365.914062 C 144.007812 347.109375 107.941406 349.085938 94.914062 381.105469 C 78.753906 420.777344 115.570312 463.679688 162.765625 486.152344 C 228.476562 517.472656 305.476562 526.410156 312.96875 510.359375 C 327.84375 478.5 213.574219 383.621094 179.859375 365.914062 Z M 179.859375 365.914062 " fill-opacity="1" fill-rule="evenodd"/><path fill="#66241c" d="M 59.328125 318.273438 C 82.5 364.199219 107.835938 378.457031 142.589844 397.984375 C 151.796875 403.148438 161.640625 408.710938 172.746094 415.585938 L 320.914062 507.257812 L 314.976562 516.859375 L 166.804688 425.1875 C 156.449219 418.769531 146.417969 413.125 137.054688 407.855469 C 100.558594 387.339844 73.992188 372.386719 49.242188 323.355469 Z M 59.328125 318.273438 " fill-opacity="1" fill-rule="nonzero"/><path fill="#66241c" d="M 78.378906 447.015625 C 99.996094 448.648438 116.476562 449.101562 129.453125 444.929688 C 141.894531 440.945312 151.632812 432.410156 160.515625 416.039062 L 170.46875 421.445312 C 160.0625 440.648438 148.261719 450.789062 132.90625 455.710938 C 118.058594 460.472656 100.425781 460.070312 77.523438 458.332031 Z M 78.378906 447.015625 " fill-opacity="1" fill-rule="nonzero"/><path fill="#66241c" d="M 221.464844 321.054688 L 203.648438 327.097656 C 200.410156 345.878906 199.179688 364.523438 199.394531 383.058594 C 199.605469 401.972656 201.371094 420.855469 204.15625 439.714844 L 217.050781 446.054688 Z M 186.765625 302.972656 L 231.765625 287.722656 C 233.34375 287.214844 235.03125 286.949219 236.796875 287.003906 C 244.582031 287.269531 250.683594 293.824219 250.414062 301.609375 L 244.5 468.816406 C 244.421875 470.742188 243.964844 472.667969 243.058594 474.515625 C 239.632812 481.496094 231.179688 484.414062 224.195312 480.988281 L 185.667969 462.078125 C 181.414062 460.203125 178.148438 456.273438 177.371094 451.351562 C 173.789062 428.933594 171.460938 406.304688 171.191406 383.40625 C 170.925781 360.671875 172.691406 337.746094 177.292969 314.554688 C 177.933594 309.363281 181.464844 304.765625 186.765625 302.972656 Z M 186.765625 302.972656 " fill-opacity="1" fill-rule="nonzero"/><path fill="#8c98a8" d="M 236.289062 301.125 C 221.277344 306.207031 206.296875 311.289062 191.285156 316.375 C 182.1875 361.367188 184.300781 405.449219 191.285156 449.15625 C 204.316406 455.550781 217.34375 461.941406 230.375 468.335938 C 232.355469 412.589844 234.335938 356.84375 236.289062 301.125 Z M 236.289062 301.125 " fill-opacity="1" fill-rule="evenodd"/><path fill="#b2bfd1" d="M 186.898438 345.503906 C 184.222656 371.957031 184.972656 398.144531 187.886719 424.171875 C 200.945312 427.542969 215.738281 430.058594 231.6875 431.476562 L 235.003906 337.691406 C 217.371094 339.054688 201.078125 341.757812 186.898438 345.503906 Z M 186.898438 345.503906 " fill-opacity="1" fill-rule="evenodd"/><path fill="#66241c" d="M 608.960938 639.984375 C 611.691406 642.527344 614.285156 644.746094 616.71875 646.59375 C 626.566406 654.082031 636.597656 658.605469 645.667969 659.273438 C 653.242188 659.835938 660.277344 657.480469 665.871094 651.488281 C 666.644531 650.660156 667.394531 649.75 668.144531 648.785156 L 668.171875 648.8125 C 676.707031 637.550781 677.695312 622.945312 673.308594 607.96875 C 667.929688 589.589844 654.875 570.894531 637.507812 556.128906 L 637.480469 556.152344 L 635.851562 554.761719 C 611.128906 534.03125 583.25 517.394531 560.347656 507.46875 C 542.367188 499.660156 529.765625 495.003906 528.453125 495.859375 C 524.308594 500.890625 531.664062 520.335938 543.117188 543.261719 C 562.59375 582.261719 594.40625 626.398438 608.960938 639.984375 Z M 599.703125 669.0625 C 596.144531 666.359375 592.800781 663.550781 589.722656 660.691406 C 573.457031 645.496094 538.59375 597.5625 517.78125 555.914062 C 501.644531 523.625 493.808594 493.210938 506.78125 477.75 L 506.917969 477.617188 C 516.496094 466.382812 541.699219 468.738281 571.503906 481.65625 C 596.761719 492.597656 627.261719 510.734375 653.992188 533.148438 L 655.730469 534.648438 L 655.730469 534.699219 C 677.1875 552.972656 693.480469 576.589844 700.382812 600.183594 C 707.179688 623.457031 705.121094 646.835938 690.566406 665.960938 L 690.566406 666.011719 C 689.28125 667.726562 687.914062 669.304688 686.523438 670.800781 C 674.511719 683.667969 659.554688 688.777344 643.527344 687.546875 C 629.054688 686.394531 613.882812 679.84375 599.703125 669.0625 Z M 599.703125 669.0625 " fill-opacity="1" fill-rule="nonzero"/><path fill="#a3d9f1" d="M 599.355469 650.339844 C 626.96875 676.097656 659.824219 683.132812 679.382812 657.398438 C 703.621094 625.515625 683.742188 576.992188 646.632812 545.402344 C 594.914062 501.34375 528.160156 474.300781 517.644531 486.820312 C 496.480469 511.964844 573.375 626.078125 599.355469 650.339844 Z M 599.355469 650.339844 " fill-opacity="1" fill-rule="evenodd"/><path fill="#54afe8" d="M 587.398438 615.9375 C 609.710938 636.75 636.25 642.445312 652.0625 621.636719 C 671.648438 595.875 653.402344 557.277344 623.597656 531.542969 C 582.097656 495.699219 527.972656 473.953125 519.359375 484.199219 C 502.234375 504.5 566.394531 596.332031 587.398438 615.9375 Z M 587.398438 615.9375 " fill-opacity="1" fill-rule="evenodd"/><path fill="#66241c" d="M 687.78125 649.589844 C 626.191406 620.832031 564.65625 550.214844 527.519531 507.578125 C 520.988281 500.085938 515.15625 493.398438 511.359375 489.171875 L 519.734375 481.601562 C 525.269531 487.730469 530.355469 493.585938 536.082031 500.140625 C 572.65625 542.109375 633.226562 611.660156 692.570312 639.371094 Z M 687.78125 649.589844 " fill-opacity="1" fill-rule="nonzero"/><path fill="#66241c" d="M 618.058594 676.230469 C 610.914062 662.804688 606.765625 647.34375 607.835938 632.976562 C 608.800781 620.03125 613.882812 607.992188 624.613281 598.980469 L 631.863281 607.621094 C 623.730469 614.46875 619.851562 623.75 619.101562 633.78125 C 618.191406 645.976562 621.777344 659.273438 627.984375 670.910156 Z M 618.058594 676.230469 " fill-opacity="1" fill-rule="nonzero"/><path fill="#66241c" d="M 666.566406 564.179688 C 654.175781 559.683594 640.480469 557.972656 628.546875 560.59375 C 618.699219 562.734375 610.058594 567.871094 604.441406 576.910156 L 594.835938 570.945312 C 602.246094 559.070312 613.484375 552.328125 626.164062 549.546875 C 640.238281 546.46875 656.15625 548.398438 670.417969 553.585938 Z M 666.566406 564.179688 " fill-opacity="1" fill-rule="nonzero"/><path fill="#66241c" d="M 656.933594 313.671875 C 662.042969 310.996094 666.941406 308.695312 671.542969 306.824219 C 692.730469 298.183594 713.734375 295.105469 732.0625 298.585938 C 751.859375 302.328125 768.261719 313.378906 778.480469 332.851562 C 779.738281 335.257812 780.808594 337.53125 781.691406 339.671875 C 793.117188 367.679688 787.820312 396.863281 771.6875 423.050781 L 771.632812 423.050781 C 755.042969 449.984375 726.628906 473.820312 693.589844 489.28125 L 693.589844 489.335938 L 692.730469 489.734375 C 650.753906 509.261719 605.324219 521.941406 569.148438 527.210938 C 528.054688 533.203125 496.429688 528.308594 488.992188 512.445312 L 488.964844 512.417969 L 488.910156 512.445312 C 478.554688 490.191406 498.675781 455.765625 529.5 421.417969 C 570.40625 375.808594 631.167969 327.207031 656.933594 313.671875 Z M 682.191406 333.039062 C 677.910156 334.777344 673.84375 336.648438 670.015625 338.683594 C 646.257812 351.148438 589.429688 396.863281 550.554688 440.167969 C 526.769531 466.675781 510.019531 490.617188 514.59375 500.460938 L 514.675781 500.703125 C 517.136719 504.101562 537.042969 503.296875 565.136719 499.203125 C 598.792969 494.28125 641.28125 482.40625 680.746094 464.054688 L 681.601562 463.65625 L 681.628906 463.707031 C 709.828125 450.519531 733.828125 430.566406 747.582031 408.230469 L 747.527344 408.203125 C 759.085938 389.453125 763.097656 369.097656 755.417969 350.292969 C 754.695312 348.5 754.027344 347.054688 753.441406 345.902344 C 747.605469 334.804688 738.1875 328.492188 726.816406 326.351562 C 714.027344 323.917969 698.484375 326.402344 682.191406 333.039062 Z M 682.191406 333.039062 " fill-opacity="1" fill-rule="nonzero"/><path fill="#a3d9f1" d="M 663.460938 326.191406 C 707.847656 302.917969 752.421875 305.378906 768.582031 344.996094 C 788.597656 394.078125 746.1875 449.078125 687.59375 476.496094 C 605.9375 514.71875 510.875 526.0625 501.753906 506.453125 C 483.398438 466.972656 621.722656 348.097656 663.460938 326.191406 Z M 663.460938 326.191406 " fill-opacity="1" fill-rule="evenodd"/><path fill="#54afe8" d="M 636.171875 365.914062 C 672.023438 347.109375 708.089844 349.085938 721.117188 381.105469 C 737.277344 420.777344 700.464844 463.679688 653.269531 486.152344 C 587.558594 517.472656 510.554688 526.410156 503.0625 510.359375 C 488.1875 478.5 602.433594 383.621094 636.171875 365.914062 Z M 636.171875 365.914062 " fill-opacity="1" fill-rule="evenodd"/><path fill="#66241c" d="M 766.789062 323.355469 C 742.042969 372.386719 715.472656 387.339844 678.980469 407.855469 C 669.617188 413.125 659.582031 418.769531 649.226562 425.1875 L 501.058594 516.859375 L 495.117188 507.257812 L 643.289062 415.585938 C 654.390625 408.710938 664.265625 403.175781 673.441406 397.984375 C 708.195312 378.429688 733.507812 364.199219 756.703125 318.273438 Z M 766.789062 323.355469 " fill-opacity="1" fill-rule="nonzero"/><path fill="#66241c" d="M 738.484375 458.304688 C 715.582031 460.042969 697.949219 460.445312 683.101562 455.683594 C 667.742188 450.761719 655.945312 440.625 645.535156 421.417969 L 655.488281 416.015625 C 664.371094 432.386719 674.109375 440.917969 686.550781 444.902344 C 699.527344 449.050781 716.007812 448.621094 737.628906 446.988281 Z M 738.484375 458.304688 " fill-opacity="1" fill-rule="nonzero"/><path fill="#66241c" d="M 584.265625 287.722656 L 629.269531 302.972656 C 634.566406 304.765625 638.070312 309.363281 638.765625 314.554688 C 643.367188 337.746094 645.160156 360.671875 644.867188 383.40625 C 644.597656 406.304688 642.246094 428.90625 638.6875 451.351562 C 637.910156 456.296875 634.644531 460.203125 630.390625 462.078125 L 591.863281 480.988281 C 584.882812 484.414062 576.425781 481.496094 573.003906 474.515625 C 572.09375 472.667969 571.636719 470.742188 571.585938 468.816406 L 565.644531 301.609375 C 565.378906 293.824219 571.476562 287.269531 579.261719 287.003906 C 580.976562 286.949219 582.6875 287.214844 584.265625 287.722656 Z M 612.386719 327.097656 L 594.566406 321.054688 L 598.980469 446.054688 L 611.878906 439.714844 C 614.632812 420.855469 616.425781 401.972656 616.640625 383.058594 C 616.855469 364.523438 615.597656 345.878906 612.386719 327.097656 Z M 612.386719 327.097656 " fill-opacity="1" fill-rule="nonzero"/><path fill="#8c98a8" d="M 579.71875 301.125 C 594.726562 306.207031 609.710938 311.289062 624.71875 316.375 C 633.816406 361.367188 631.703125 405.449219 624.71875 449.15625 C 611.691406 455.550781 598.660156 461.941406 585.628906 468.335938 C 583.652344 412.589844 581.699219 356.84375 579.71875 301.125 Z M 579.71875 301.125 " fill-opacity="1" fill-rule="evenodd"/><path fill="#b2bfd1" d="M 629.109375 345.503906 C 631.785156 371.957031 631.035156 398.144531 628.117188 424.171875 C 615.0625 427.542969 600.265625 430.058594 584.320312 431.476562 L 581.003906 337.691406 C 598.632812 339.054688 614.925781 341.757812 629.109375 345.503906 Z M 629.109375 345.503906 " fill-opacity="1" fill-rule="evenodd"/><path fill="#66241c" d="M 591.675781 274.484375 C 602.164062 319.421875 607.488281 375.890625 606.394531 431.394531 C 605.347656 483.019531 598.742188 533.953125 585.496094 574.371094 C 573.164062 612.03125 554.085938 644.800781 525.324219 668.367188 C 496.375 692.09375 458.195312 706.191406 408.003906 706.191406 C 357.808594 706.191406 319.628906 692.09375 290.679688 668.367188 C 261.945312 644.800781 242.871094 612.058594 230.507812 574.371094 C 217.265625 533.953125 210.65625 483.019531 209.613281 431.394531 C 208.515625 375.890625 213.839844 319.421875 224.328125 274.484375 C 233.183594 236.445312 261.304688 208.707031 298.492188 191.160156 C 330.492188 176.046875 369.339844 168.476562 407.976562 168.476562 C 446.636719 168.476562 485.460938 176.046875 517.457031 191.132812 C 554.703125 208.707031 582.820312 236.445312 591.675781 274.484375 Z M 578.140625 430.832031 C 579.210938 377.761719 574.097656 323.808594 564.09375 280.902344 C 557.402344 252.175781 535.117188 230.75 505.417969 216.730469 C 477.324219 203.464844 442.757812 196.832031 408.003906 196.832031 C 373.246094 196.832031 338.679688 203.464844 310.585938 216.730469 C 280.890625 230.75 258.601562 252.203125 251.914062 280.902344 C 241.90625 323.835938 236.796875 377.761719 237.867188 430.832031 C 238.828125 479.757812 245.035156 527.828125 257.425781 565.625 C 268.179688 598.472656 284.472656 626.746094 308.605469 646.539062 C 332.554688 666.171875 364.847656 677.835938 408.003906 677.835938 C 451.160156 677.835938 483.453125 666.171875 507.398438 646.539062 C 531.558594 626.746094 547.824219 598.472656 558.582031 565.625 C 570.96875 527.828125 577.175781 479.757812 578.140625 430.832031 Z M 578.140625 430.832031 " fill-opacity="1" fill-rule="nonzero"/><path fill="#ffcc00" d="M 577.898438 277.695312 C 597.644531 362.300781 598.714844 488.636719 572.066406 569.984375 C 548.949219 640.519531 501.378906 691.988281 408.03125 691.988281 C 314.679688 691.988281 267.109375 640.519531 243.992188 569.984375 C 217.34375 488.636719 218.414062 362.300781 238.160156 277.695312 C 267.644531 150.980469 548.359375 150.980469 577.898438 277.695312 Z M 577.898438 277.695312 " fill-opacity="1" fill-rule="evenodd"/><path fill="#fff68f" d="M 577.898438 277.695312 C 592.023438 338.335938 596.492188 420.105469 588.144531 491.660156 C 586.058594 411.839844 581.644531 343.550781 565.75 283.472656 C 553.898438 246.503906 528.910156 216.597656 494.691406 196.75 C 536.242188 211.808594 568.855469 238.960938 577.898438 277.695312 Z M 577.898438 277.695312 " fill-opacity="1" fill-rule="evenodd"/><path fill="#f59520" d="M 301.117188 643.195312 C 279.898438 622.894531 265.128906 596.4375 255.042969 566.425781 C 228.394531 487.195312 229.464844 364.148438 249.210938 281.734375 C 254.9375 257.765625 270.160156 238.425781 291.191406 223.792969 C 316.582031 206.085938 314.492188 224.542969 306.519531 242.945312 C 265.960938 336.730469 274.574219 507.738281 317.652344 635.597656 C 325.328125 658.46875 313.261719 654.804688 301.117188 643.195312 Z M 301.117188 643.195312 " fill-opacity="1" fill-rule="evenodd"/><path fill="#66241c" d="M 228.15625 494.976562 C 230.375 513.0625 233.425781 530.449219 237.359375 546.605469 C 270.5625 563.882812 309.542969 581.914062 364.953125 583.894531 L 408.03125 613.050781 L 451.105469 583.894531 C 506.515625 581.941406 545.496094 563.882812 578.703125 546.605469 C 582.632812 530.449219 585.683594 513.0625 587.90625 494.976562 C 548.011719 525.019531 483.078125 546.148438 408.054688 546.148438 C 332.980469 546.148438 268.046875 525.019531 228.15625 494.976562 Z M 562.300781 595.261719 C 536.453125 652.476562 489.820312 691.988281 408.03125 691.988281 C 326.238281 691.988281 279.605469 652.476562 253.757812 595.261719 C 278.535156 611.710938 315.375 622.304688 356.152344 624.015625 L 408.03125 662.804688 L 459.90625 624.015625 C 500.683594 622.304688 537.5 611.710938 562.300781 595.261719 Z M 562.300781 595.261719 " fill-opacity="1" fill-rule="evenodd"/><path fill="#66241c" d="M 231.015625 499.820312 C 231.980469 507.175781 233.105469 514.398438 234.363281 521.433594 C 235.804688 529.589844 237.464844 537.484375 239.285156 545.078125 C 255.578125 553.53125 273.265625 562.144531 293.515625 568.886719 C 314.144531 575.734375 337.554688 580.710938 365.035156 581.671875 L 365.675781 581.699219 L 408.03125 610.375 L 450.382812 581.699219 L 451.023438 581.671875 C 478.503906 580.710938 501.886719 575.734375 522.542969 568.886719 C 542.796875 562.171875 560.480469 553.558594 576.773438 545.078125 C 578.59375 537.507812 580.226562 529.589844 581.699219 521.433594 C 582.957031 514.398438 584.050781 507.148438 585.042969 499.820312 C 564.761719 514.15625 538.753906 526.328125 508.710938 534.863281 C 478.664062 543.421875 444.550781 548.398438 408.054688 548.398438 C 371.5625 548.398438 337.449219 543.421875 307.402344 534.863281 C 277.304688 526.300781 251.296875 514.15625 231.015625 499.820312 Z M 229.972656 522.207031 C 228.421875 513.433594 227.085938 504.421875 225.960938 495.246094 L 225.320312 490.054688 L 229.492188 493.210938 C 249.878906 508.566406 276.929688 521.59375 308.582031 530.582031 C 338.253906 539.035156 371.964844 543.929688 408.003906 543.929688 C 444.070312 543.929688 477.78125 539.007812 507.425781 530.582031 C 539.078125 521.566406 566.125 508.566406 586.511719 493.210938 L 590.6875 490.054688 L 590.046875 495.246094 C 588.921875 504.421875 587.582031 513.433594 586.03125 522.207031 C 584.507812 530.714844 582.769531 539.0625 580.816406 547.113281 L 580.574219 548.101562 L 579.691406 548.558594 C 563.050781 557.222656 544.910156 566.105469 523.878906 573.085938 C 503.039062 580.015625 479.4375 585.042969 451.773438 586.085938 L 407.976562 615.722656 L 364.230469 586.085938 C 336.566406 585.042969 312.96875 580.015625 292.125 573.085938 C 271.097656 566.105469 252.984375 557.222656 236.316406 548.558594 L 235.433594 548.101562 L 235.191406 547.113281 C 233.210938 539.035156 231.472656 530.714844 229.972656 522.207031 Z M 564.308594 596.171875 C 551.222656 625.140625 532.84375 649.644531 507.371094 666.921875 C 481.902344 684.203125 449.367188 694.234375 408.003906 694.234375 C 366.640625 694.234375 334.105469 684.203125 308.632812 666.921875 C 283.136719 649.644531 264.78125 625.140625 251.699219 596.171875 L 248.515625 589.136719 L 254.964844 593.414062 C 267.242188 601.574219 282.546875 608.261719 299.886719 613.128906 C 317.035156 617.945312 336.164062 620.96875 356.230469 621.796875 L 356.925781 621.824219 L 408.03125 660.019531 L 459.132812 621.824219 L 459.828125 621.796875 C 479.894531 620.96875 498.996094 617.945312 516.175781 613.128906 C 533.484375 608.261719 548.816406 601.574219 561.097656 593.414062 L 567.542969 589.136719 Z M 504.882812 663.257812 C 527.625 647.851562 544.5625 626.425781 557.054688 601.121094 C 545.660156 607.726562 532.199219 613.238281 517.351562 617.410156 C 500.09375 622.25 480.855469 625.300781 460.683594 626.210938 L 408.003906 665.585938 L 355.320312 626.210938 C 335.148438 625.328125 315.9375 622.277344 298.65625 617.410156 C 283.804688 613.238281 270.347656 607.726562 258.949219 601.121094 C 271.445312 626.425781 288.378906 647.824219 311.121094 663.257812 C 335.871094 680.03125 367.574219 689.765625 408.003906 689.765625 C 448.429688 689.765625 480.136719 680.03125 504.882812 663.257812 Z M 504.882812 663.257812 " fill-opacity="1" fill-rule="nonzero"/><path fill="#66241c" d="M 275.03125 339.992188 C 273.265625 353.046875 272.328125 367.542969 272.328125 382.285156 C 272.328125 396.703125 273.15625 411.441406 274.949219 425.375 C 276.449219 437.039062 294.132812 446.617188 319.363281 453.570312 C 344.40625 460.445312 376.082031 463.894531 408.03125 463.894531 C 439.976562 463.894531 471.652344 460.445312 496.695312 453.570312 C 521.925781 446.617188 539.613281 437.039062 541.109375 425.375 C 542.902344 411.414062 543.757812 396.703125 543.730469 382.285156 C 543.707031 367.542969 542.796875 353.046875 541.03125 339.992188 C 539.371094 327.660156 521.765625 317.628906 496.722656 310.433594 C 471.601562 303.210938 439.894531 299.601562 408.054688 299.601562 C 376.191406 299.601562 344.484375 303.210938 319.390625 310.433594 C 294.292969 317.628906 276.6875 327.660156 275.03125 339.992188 Z M 244.101562 382.285156 C 244.128906 366.101562 245.117188 350.34375 247.042969 336.222656 C 250.46875 310.96875 275.9375 293.476562 311.605469 283.203125 C 339.269531 275.234375 373.730469 271.246094 408.03125 271.246094 C 442.328125 271.246094 476.765625 275.234375 504.457031 283.203125 C 540.121094 293.476562 565.589844 310.96875 569.015625 336.222656 C 570.914062 350.316406 571.933594 366.101562 571.957031 382.285156 C 571.984375 397.878906 571.050781 413.820312 569.121094 428.933594 C 565.9375 453.757812 540.199219 470.878906 504.132812 480.800781 C 476.414062 488.425781 442.117188 492.25 408.054688 492.25 C 373.996094 492.25 339.695312 488.425781 311.980469 480.800781 C 275.886719 470.878906 250.175781 453.757812 246.988281 428.933594 C 245.011719 413.820312 244.074219 397.878906 244.101562 382.285156 Z M 244.101562 382.285156 " fill-opacity="1" fill-rule="nonzero"/><path fill="#66241c" d="M 261.035156 338.121094 C 257.425781 364.894531 257.15625 397.664062 260.957031 427.167969 C 269.679688 495.058594 546.378906 495.058594 555.101562 427.167969 C 558.875 397.664062 558.632812 364.894531 555.023438 338.121094 C 545.472656 267.851562 270.535156 267.851562 261.035156 338.121094 Z M 261.035156 338.121094 " fill-opacity="1" fill-rule="evenodd"/><path fill="#69c6ff" d="M 374.800781 434.042969 C 354.574219 420 328.378906 418.394531 310.347656 438.003906 C 291.429688 404.164062 286.960938 324.15625 338.253906 325.496094 C 387.453125 326.804688 384.804688 399.082031 374.800781 434.042969 Z M 374.800781 434.042969 " fill-opacity="1" fill-rule="evenodd"/><path fill="#69c6ff" d="M 441.207031 434.042969 C 461.433594 420 487.625 418.394531 505.660156 438.003906 C 524.574219 404.164062 529.042969 324.15625 477.753906 325.496094 C 428.578125 326.804688 431.199219 399.082031 441.207031 434.042969 Z M 441.207031 434.042969 " fill-opacity="1" fill-rule="evenodd"/><path fill="#fff68f" d="M 522.035156 227.164062 C 528.9375 223.792969 541.429688 231.953125 549.964844 245.378906 C 558.5 258.808594 559.8125 272.449219 552.910156 275.820312 C 546.007812 279.191406 533.511719 271.03125 524.976562 257.605469 C 516.441406 244.175781 515.128906 230.535156 522.035156 227.164062 Z M 522.035156 227.164062 " fill-opacity="1" fill-rule="evenodd"/><path fill="#fff68f" d="M 507.078125 255.894531 C 510.207031 254.367188 515.90625 258.058594 519.785156 264.183594 C 523.664062 270.3125 524.253906 276.515625 521.125 278.042969 C 517.992188 279.566406 512.292969 275.875 508.414062 269.75 C 504.535156 263.648438 503.921875 257.445312 507.078125 255.894531 Z M 507.078125 255.894531 " fill-opacity="1" fill-rule="evenodd"/><path fill="#66241c" d="M 315.324219 113.800781 L 315.027344 113.882812 C 314.949219 113.933594 314.867188 114.015625 314.816406 114.121094 C 314.734375 114.28125 314.679688 114.46875 314.734375 114.628906 L 347.484375 231.980469 C 347.507812 232.113281 347.644531 232.246094 347.777344 232.328125 C 347.9375 232.40625 348.097656 232.460938 348.257812 232.40625 L 348.285156 232.40625 C 348.417969 232.378906 348.554688 232.246094 348.632812 232.113281 C 348.714844 231.953125 348.765625 231.765625 348.714844 231.605469 L 316.125 114.871094 L 315.882812 114.148438 C 315.832031 114.042969 315.75 113.960938 315.644531 113.90625 C 315.5625 113.855469 315.429688 113.800781 315.324219 113.800781 Z M 311.335938 99.25 C 315.429688 98.152344 319.628906 98.820312 323.054688 100.746094 C 326.558594 102.726562 329.316406 106.042969 330.492188 110.191406 L 363.242188 227.566406 C 364.390625 231.738281 363.777344 235.992188 361.796875 239.46875 C 359.949219 242.730469 356.925781 245.355469 353.128906 246.636719 C 352.621094 246.851562 352.113281 246.984375 351.578125 247.066406 C 347.644531 247.976562 343.683594 247.28125 340.390625 245.433594 C 336.886719 243.453125 334.132812 240.136719 332.953125 235.9375 L 300.207031 118.640625 C 299.054688 114.46875 299.671875 110.214844 301.652344 106.738281 C 303.632812 103.234375 306.949219 100.480469 311.148438 99.300781 Z M 311.335938 99.25 " fill-opacity="1" fill-rule="nonzero"/><path fill="#66241c" d="M 313.15625 106.578125 C 317.488281 105.375 322.011719 107.914062 323.242188 112.25 L 355.992188 229.597656 C 357.195312 233.933594 354.652344 238.453125 350.320312 239.65625 C 345.984375 240.859375 341.460938 238.320312 340.257812 233.984375 L 307.511719 116.636719 C 306.253906 112.300781 308.820312 107.78125 313.15625 106.578125 Z M 313.15625 106.578125 " fill-opacity="1" fill-rule="evenodd"/><path fill="#66241c" d="M 307.109375 71.5625 C 317.757812 69.050781 328.460938 71.324219 337.183594 77.046875 C 345.691406 82.636719 352.351562 91.546875 355.082031 102.457031 L 355.160156 102.808594 C 357.785156 113.640625 356.125 124.472656 351.253906 133.21875 C 346.226562 142.289062 337.796875 149.242188 327.148438 151.890625 L 326.613281 152.027344 C 315.964844 154.539062 305.261719 152.265625 296.539062 146.542969 C 288.03125 140.953125 281.371094 132.042969 278.640625 121.128906 L 278.5625 120.78125 C 275.9375 109.976562 277.625 99.167969 282.496094 90.367188 L 282.46875 90.339844 C 287.496094 81.273438 295.925781 74.320312 306.574219 71.671875 Z M 324.605469 95.851562 C 320.914062 93.417969 316.5 92.453125 312.21875 93.445312 L 312.03125 93.496094 C 307.859375 94.542969 304.488281 97.375 302.398438 101.148438 L 302.347656 101.148438 C 300.097656 105.1875 299.351562 110.269531 300.609375 115.460938 L 300.660156 115.621094 C 301.972656 120.863281 305.101562 125.089844 309.089844 127.710938 C 312.78125 130.144531 317.195312 131.132812 321.476562 130.117188 L 321.664062 130.0625 C 325.835938 129.019531 329.207031 126.1875 331.296875 122.414062 C 333.542969 118.347656 334.320312 113.238281 333.089844 108.101562 L 333.035156 107.941406 C 331.722656 102.699219 328.59375 98.445312 324.605469 95.851562 Z M 324.605469 95.851562 " fill-opacity="1" fill-rule="nonzero"/><path fill="#ffcc00" d="M 309.492188 82.53125 C 324.5 78.894531 339.964844 89.03125 344.03125 105.1875 C 348.097656 121.34375 339.1875 137.394531 324.179688 141.03125 C 309.167969 144.667969 293.703125 134.53125 289.636719 118.375 C 285.597656 102.246094 294.480469 86.195312 309.492188 82.53125 Z M 309.492188 82.53125 " fill-opacity="1" fill-rule="evenodd"/><path fill="#fff68f" d="M 320.59375 86.996094 C 328.136719 85.179688 335.925781 90.261719 337.957031 98.394531 C 339.992188 106.523438 335.523438 114.578125 327.976562 116.421875 C 320.433594 118.242188 312.648438 113.160156 310.613281 105.027344 C 308.554688 96.894531 313.023438 88.84375 320.59375 86.996094 Z M 320.59375 86.996094 " fill-opacity="1" fill-rule="evenodd"/><path fill="#66241c" d="M 501.003906 113.882812 L 500.710938 113.800781 C 500.601562 113.800781 500.46875 113.855469 500.363281 113.90625 C 500.253906 113.960938 500.175781 114.042969 500.121094 114.148438 L 499.878906 114.871094 L 467.292969 231.605469 C 467.238281 231.765625 467.292969 231.953125 467.371094 232.113281 C 467.453125 232.246094 467.585938 232.378906 467.71875 232.40625 L 467.746094 232.40625 C 467.90625 232.433594 468.070312 232.40625 468.230469 232.328125 C 468.363281 232.246094 468.496094 232.113281 468.523438 231.980469 L 501.296875 114.628906 C 501.351562 114.46875 501.296875 114.28125 501.21875 114.121094 C 501.164062 114.015625 501.085938 113.933594 501.003906 113.882812 Z M 492.976562 100.746094 C 496.402344 98.820312 500.574219 98.179688 504.695312 99.25 L 504.882812 99.300781 C 509.085938 100.480469 512.402344 103.234375 514.382812 106.738281 C 516.335938 110.214844 516.976562 114.46875 515.828125 118.640625 L 483.078125 235.992188 C 481.902344 240.164062 479.144531 243.507812 475.640625 245.488281 C 472.375 247.332031 468.390625 248 464.457031 247.117188 C 463.921875 247.039062 463.414062 246.878906 462.90625 246.664062 C 459.105469 245.378906 456.082031 242.757812 454.234375 239.496094 C 452.28125 236.019531 451.640625 231.765625 452.792969 227.59375 L 485.539062 110.214844 C 486.714844 106.042969 489.472656 102.726562 492.976562 100.746094 Z M 492.976562 100.746094 " fill-opacity="1" fill-rule="nonzero"/><path fill="#66241c" d="M 502.875 106.578125 C 498.542969 105.375 494.019531 107.914062 492.789062 112.25 L 460.042969 229.597656 C 458.835938 233.933594 461.378906 238.453125 465.714844 239.65625 C 470.046875 240.859375 474.570312 238.320312 475.773438 233.984375 L 508.523438 116.636719 C 509.753906 112.300781 507.210938 107.78125 502.875 106.578125 Z M 502.875 106.578125 " fill-opacity="1" fill-rule="evenodd"/><path fill="#66241c" d="M 503.785156 93.445312 C 499.53125 92.429688 495.089844 93.417969 491.398438 95.851562 C 487.414062 98.472656 484.28125 102.699219 482.972656 107.941406 L 482.917969 108.101562 C 481.660156 113.238281 482.4375 118.347656 484.710938 122.414062 C 486.796875 126.1875 490.167969 129.019531 494.34375 130.0625 L 494.554688 130.117188 C 498.808594 131.132812 503.226562 130.144531 506.945312 127.710938 C 510.929688 125.089844 514.0625 120.863281 515.371094 115.621094 L 515.425781 115.460938 C 516.683594 110.269531 515.933594 105.1875 513.6875 101.148438 L 513.632812 101.148438 C 511.546875 97.375 508.175781 94.542969 504 93.496094 Z M 478.851562 77.046875 C 487.574219 71.324219 498.273438 69.074219 508.898438 71.5625 L 509.433594 71.695312 C 520.082031 74.371094 528.507812 81.300781 533.539062 90.367188 L 533.511719 90.394531 C 538.382812 99.195312 540.066406 110.003906 537.445312 120.808594 L 537.363281 121.15625 C 534.636719 132.070312 527.972656 140.976562 519.464844 146.570312 C 510.742188 152.292969 500.039062 154.539062 489.417969 152.050781 L 488.882812 151.917969 C 478.234375 149.242188 469.808594 142.316406 464.777344 133.246094 C 459.90625 124.5 458.25 113.667969 460.871094 102.832031 L 460.953125 102.484375 C 463.707031 91.519531 470.34375 82.609375 478.851562 77.046875 Z M 478.851562 77.046875 " fill-opacity="1" fill-rule="nonzero"/><path fill="#ffcc00" d="M 506.515625 82.53125 C 491.507812 78.894531 476.042969 89.03125 471.976562 105.1875 C 467.90625 121.34375 476.816406 137.394531 491.828125 141.03125 C 506.835938 144.667969 522.300781 134.53125 526.367188 118.375 C 530.433594 102.246094 521.550781 86.195312 506.515625 82.53125 Z M 506.515625 82.53125 " fill-opacity="1" fill-rule="evenodd"/><path fill="#fff68f" d="M 512.535156 89.699219 C 504.992188 87.878906 497.203125 92.964844 495.171875 101.09375 C 493.136719 109.226562 497.605469 117.277344 505.152344 119.125 C 512.695312 120.941406 520.480469 115.859375 522.515625 107.730469 C 524.546875 99.597656 520.082031 91.546875 512.535156 89.699219 Z M 512.535156 89.699219 " fill-opacity="1" fill-rule="evenodd"/><path fill="#66241c" d="M 365.195312 698.621094 L 408.003906 735.132812 L 450.839844 698.621094 L 450.839844 686.742188 L 408.003906 690.863281 L 365.195312 686.742188 Z M 365.195312 698.621094 " fill-opacity="1" fill-rule="evenodd"/><g clip-path="url(#f2613da2fb)"><path fill="#66241c" d="M 367.414062 697.605469 L 408.003906 732.21875 L 448.589844 697.605469 L 448.589844 689.203125 C 403.160156 693.566406 412.84375 693.566406 367.386719 689.203125 L 367.386719 697.605469 Z M 406.558594 736.820312 L 362.945312 699.636719 L 362.945312 684.308594 L 408.003906 688.617188 L 453.058594 684.308594 L 453.058594 699.636719 L 408.003906 738.050781 Z M 406.558594 736.820312 " fill-opacity="1" fill-rule="nonzero"/></g><path fill="#66241c" d="M 226.308594 660.664062 C 223.230469 663.527344 219.886719 666.335938 216.328125 669.035156 C 202.148438 679.816406 186.976562 686.371094 172.449219 687.464844 C 156.421875 688.667969 141.46875 683.585938 129.453125 670.722656 C 128.0625 669.222656 126.726562 667.644531 125.414062 665.933594 L 125.414062 665.878906 C 110.859375 646.753906 108.800781 623.375 115.59375 600.101562 C 122.5 576.511719 138.820312 552.890625 160.25 534.621094 L 160.25 534.566406 L 161.988281 533.070312 C 188.691406 510.652344 219.21875 492.515625 244.476562 481.578125 C 274.308594 468.65625 299.511719 466.304688 309.0625 477.539062 L 309.195312 477.671875 C 322.199219 493.160156 314.332031 523.546875 298.199219 555.832031 C 277.4375 597.535156 242.574219 645.496094 226.308594 660.664062 Z M 199.285156 646.59375 C 201.71875 644.746094 204.316406 642.527344 207.042969 639.984375 C 221.597656 626.398438 253.4375 582.261719 272.914062 543.289062 C 284.367188 520.390625 291.726562 500.941406 287.578125 495.886719 C 286.265625 495.03125 273.664062 499.6875 255.6875 507.496094 C 232.78125 517.421875 204.902344 534.058594 180.183594 554.789062 L 178.550781 556.152344 L 178.523438 556.128906 C 161.1875 570.894531 148.101562 589.589844 142.726562 607.96875 C 138.335938 622.945312 139.300781 637.550781 147.863281 648.8125 L 147.890625 648.785156 C 148.609375 649.75 149.386719 650.660156 150.164062 651.488281 C 155.753906 657.480469 162.792969 659.859375 170.363281 659.273438 C 179.40625 658.605469 189.441406 654.082031 199.285156 646.59375 Z M 199.285156 646.59375 " fill-opacity="1" fill-rule="nonzero"/><path fill="#a3d9f1" d="M 216.675781 650.339844 C 189.066406 676.097656 156.210938 683.132812 136.652344 657.398438 C 112.410156 625.515625 132.289062 576.992188 169.398438 545.402344 C 221.117188 501.34375 287.871094 474.300781 298.386719 486.820312 C 319.550781 511.964844 242.65625 626.078125 216.675781 650.339844 Z M 216.675781 650.339844 " fill-opacity="1" fill-rule="evenodd"/><path fill="#54afe8" d="M 228.636719 615.9375 C 206.320312 636.75 179.78125 642.445312 163.96875 621.636719 C 144.382812 595.875 162.632812 557.277344 192.4375 531.542969 C 233.933594 495.699219 288.058594 473.953125 296.675781 484.199219 C 313.769531 504.5 249.613281 596.332031 228.636719 615.9375 Z M 228.636719 615.9375 " fill-opacity="1" fill-rule="evenodd"/><path fill="#66241c" d="M 123.460938 639.371094 C 182.804688 611.660156 243.40625 542.136719 279.953125 500.140625 C 285.652344 493.585938 290.761719 487.730469 296.300781 481.601562 L 304.675781 489.171875 C 300.875 493.398438 295.042969 500.058594 288.515625 507.578125 C 251.378906 550.214844 189.839844 620.832031 128.25 649.589844 Z M 123.460938 639.371094 " fill-opacity="1" fill-rule="nonzero"/><path fill="#66241c" d="M 187.996094 670.933594 C 194.203125 659.300781 197.789062 646.003906 196.878906 633.808594 C 196.128906 623.777344 192.25 614.46875 184.117188 607.644531 L 191.367188 599.007812 C 202.09375 608.019531 207.207031 620.085938 208.140625 633.003906 C 209.210938 647.367188 205.066406 662.828125 197.921875 676.257812 Z M 187.996094 670.933594 " fill-opacity="1" fill-rule="nonzero"/><path fill="#66241c" d="M 145.613281 553.558594 C 159.902344 548.371094 175.792969 546.445312 189.867188 549.519531 C 202.550781 552.273438 213.761719 559.015625 221.199219 570.917969 L 211.59375 576.882812 C 205.949219 567.871094 197.304688 562.734375 187.488281 560.566406 C 175.554688 557.972656 161.855469 559.65625 149.46875 564.152344 Z M 145.613281 553.558594 " fill-opacity="1" fill-rule="nonzero"/><path fill="#66241c" d="M 146.015625 338.683594 C 142.191406 336.675781 138.125 334.777344 133.84375 333.039062 C 117.546875 326.402344 102.003906 323.917969 89.132812 326.351562 C 77.761719 328.492188 68.34375 334.832031 62.511719 345.90625 C 61.925781 347.054688 61.253906 348.5 60.53125 350.292969 C 52.855469 369.097656 56.894531 389.453125 68.425781 408.203125 L 68.371094 408.230469 C 82.125 430.539062 106.125 450.492188 134.324219 463.707031 L 134.351562 463.65625 L 135.207031 464.054688 C 174.671875 482.40625 217.15625 494.28125 250.816406 499.203125 C 278.910156 503.296875 298.816406 504.101562 301.277344 500.703125 L 301.355469 500.460938 C 305.933594 490.644531 289.183594 466.703125 265.398438 440.167969 C 226.601562 396.863281 169.773438 351.148438 146.015625 338.683594 Z M 144.464844 306.824219 C 149.09375 308.695312 153.960938 310.996094 159.074219 313.671875 C 184.863281 327.207031 245.625 375.808594 286.507812 421.363281 C 317.328125 455.738281 337.476562 490.136719 327.09375 512.390625 L 327.042969 512.363281 L 327.015625 512.390625 C 319.578125 528.253906 287.980469 533.148438 246.855469 527.15625 C 210.683594 521.886719 165.253906 509.207031 123.273438 489.683594 L 122.417969 489.28125 L 122.417969 489.226562 C 89.347656 473.765625 60.960938 449.933594 44.371094 422.996094 L 44.320312 422.996094 C 28.1875 396.808594 22.914062 367.625 34.3125 339.617188 C 35.167969 337.503906 36.265625 335.203125 37.523438 332.796875 C 47.742188 313.324219 64.144531 302.277344 83.945312 298.53125 C 102.269531 295.132812 123.273438 298.210938 144.464844 306.824219 Z M 144.464844 306.824219 " fill-opacity="1" fill-rule="nonzero"/><path fill="#a3d9f1" d="M 152.542969 326.191406 C 108.15625 302.917969 63.582031 305.378906 47.421875 344.996094 C 27.410156 394.078125 69.816406 449.078125 128.410156 476.496094 C 210.066406 514.71875 305.128906 526.0625 314.253906 506.453125 C 332.632812 466.972656 194.308594 348.097656 152.542969 326.191406 Z M 152.542969 326.191406 " fill-opacity="1" fill-rule="evenodd"/><path fill="#54afe8" d="M 179.859375 365.914062 C 144.007812 347.109375 107.941406 349.085938 94.914062 381.105469 C 78.753906 420.777344 115.570312 463.679688 162.765625 486.152344 C 228.476562 517.472656 305.476562 526.410156 312.96875 510.359375 C 327.84375 478.5 213.574219 383.621094 179.859375 365.914062 Z M 179.859375 365.914062 " fill-opacity="1" fill-rule="evenodd"/><path fill="#66241c" d="M 59.328125 318.273438 C 82.5 364.199219 107.835938 378.457031 142.589844 397.984375 C 151.796875 403.148438 161.640625 408.710938 172.746094 415.585938 L 320.914062 507.257812 L 314.976562 516.859375 L 166.804688 425.1875 C 156.449219 418.769531 146.417969 413.125 137.054688 407.855469 C 100.558594 387.339844 73.992188 372.386719 49.242188 323.355469 Z M 59.328125 318.273438 " fill-opacity="1" fill-rule="nonzero"/><path fill="#66241c" d="M 78.378906 447.015625 C 99.996094 448.648438 116.476562 449.101562 129.453125 444.929688 C 141.894531 440.945312 151.632812 432.410156 160.515625 416.039062 L 170.46875 421.445312 C 160.0625 440.648438 148.261719 450.789062 132.90625 455.710938 C 118.058594 460.472656 100.425781 460.070312 77.523438 458.332031 Z M 78.378906 447.015625 " fill-opacity="1" fill-rule="nonzero"/><path fill="#66241c" d="M 221.464844 321.054688 L 203.648438 327.097656 C 200.410156 345.878906 199.179688 364.523438 199.394531 383.058594 C 199.605469 401.972656 201.371094 420.855469 204.15625 439.714844 L 217.050781 446.054688 Z M 186.765625 302.972656 L 231.765625 287.722656 C 233.34375 287.214844 235.03125 286.949219 236.796875 287.003906 C 244.582031 287.269531 250.683594 293.824219 250.414062 301.609375 L 244.5 468.816406 C 244.421875 470.742188 243.964844 472.667969 243.058594 474.515625 C 239.632812 481.496094 231.179688 484.414062 224.195312 480.988281 L 185.667969 462.078125 C 181.414062 460.203125 178.148438 456.273438 177.371094 451.351562 C 173.789062 428.933594 171.460938 406.304688 171.191406 383.40625 C 170.925781 360.671875 172.691406 337.746094 177.292969 314.554688 C 177.933594 309.363281 181.464844 304.765625 186.765625 302.972656 Z M 186.765625 302.972656 " fill-opacity="1" fill-rule="nonzero"/><path fill="#8c98a8" d="M 236.289062 301.125 C 221.277344 306.207031 206.296875 311.289062 191.285156 316.375 C 182.1875 361.367188 184.300781 405.449219 191.285156 449.15625 C 204.316406 455.550781 217.34375 461.941406 230.375 468.335938 C 232.355469 412.589844 234.335938 356.84375 236.289062 301.125 Z M 236.289062 301.125 " fill-opacity="1" fill-rule="evenodd"/><path fill="#b2bfd1" d="M 186.898438 345.503906 C 184.222656 371.957031 184.972656 398.144531 187.886719 424.171875 C 200.945312 427.542969 215.738281 430.058594 231.6875 431.476562 L 235.003906 337.691406 C 217.371094 339.054688 201.078125 341.757812 186.898438 345.503906 Z M 186.898438 345.503906 " fill-opacity="1" fill-rule="evenodd"/><path fill="#66241c" d="M 608.960938 639.984375 C 611.691406 642.527344 614.285156 644.746094 616.71875 646.59375 C 626.566406 654.082031 636.597656 658.605469 645.667969 659.273438 C 653.242188 659.835938 660.277344 657.480469 665.871094 651.488281 C 666.644531 650.660156 667.394531 649.75 668.144531 648.785156 L 668.171875 648.8125 C 676.707031 637.550781 677.695312 622.945312 673.308594 607.96875 C 667.929688 589.589844 654.875 570.894531 637.507812 556.128906 L 637.480469 556.152344 L 635.851562 554.761719 C 611.128906 534.03125 583.25 517.394531 560.347656 507.46875 C 542.367188 499.660156 529.765625 495.003906 528.453125 495.859375 C 524.308594 500.890625 531.664062 520.335938 543.117188 543.261719 C 562.59375 582.261719 594.40625 626.398438 608.960938 639.984375 Z M 599.703125 669.0625 C 596.144531 666.359375 592.800781 663.550781 589.722656 660.691406 C 573.457031 645.496094 538.59375 597.5625 517.78125 555.914062 C 501.644531 523.625 493.808594 493.210938 506.78125 477.75 L 506.917969 477.617188 C 516.496094 466.382812 541.699219 468.738281 571.503906 481.65625 C 596.761719 492.597656 627.261719 510.734375 653.992188 533.148438 L 655.730469 534.648438 L 655.730469 534.699219 C 677.1875 552.972656 693.480469 576.589844 700.382812 600.183594 C 707.179688 623.457031 705.121094 646.835938 690.566406 665.960938 L 690.566406 666.011719 C 689.28125 667.726562 687.914062 669.304688 686.523438 670.800781 C 674.511719 683.667969 659.554688 688.777344 643.527344 687.546875 C 629.054688 686.394531 613.882812 679.84375 599.703125 669.0625 Z M 599.703125 669.0625 " fill-opacity="1" fill-rule="nonzero"/><path fill="#a3d9f1" d="M 599.355469 650.339844 C 626.96875 676.097656 659.824219 683.132812 679.382812 657.398438 C 703.621094 625.515625 683.742188 576.992188 646.632812 545.402344 C 594.914062 501.34375 528.160156 474.300781 517.644531 486.820312 C 496.480469 511.964844 573.375 626.078125 599.355469 650.339844 Z M 599.355469 650.339844 " fill-opacity="1" fill-rule="evenodd"/><path fill="#54afe8" d="M 587.398438 615.9375 C 609.710938 636.75 636.25 642.445312 652.0625 621.636719 C 671.648438 595.875 653.402344 557.277344 623.597656 531.542969 C 582.097656 495.699219 527.972656 473.953125 519.359375 484.199219 C 502.234375 504.5 566.394531 596.332031 587.398438 615.9375 Z M 587.398438 615.9375 " fill-opacity="1" fill-rule="evenodd"/><path fill="#66241c" d="M 687.78125 649.589844 C 626.191406 620.832031 564.65625 550.214844 527.519531 507.578125 C 520.988281 500.085938 515.15625 493.398438 511.359375 489.171875 L 519.734375 481.601562 C 525.269531 487.730469 530.355469 493.585938 536.082031 500.140625 C 572.65625 542.109375 633.226562 611.660156 692.570312 639.371094 Z M 687.78125 649.589844 " fill-opacity="1" fill-rule="nonzero"/><path fill="#66241c" d="M 618.058594 676.230469 C 610.914062 662.804688 606.765625 647.34375 607.835938 632.976562 C 608.800781 620.03125 613.882812 607.992188 624.613281 598.980469 L 631.863281 607.621094 C 623.730469 614.46875 619.851562 623.75 619.101562 633.78125 C 618.191406 645.976562 621.777344 659.273438 627.984375 670.910156 Z M 618.058594 676.230469 " fill-opacity="1" fill-rule="nonzero"/><path fill="#66241c" d="M 666.566406 564.179688 C 654.175781 559.683594 640.480469 557.972656 628.546875 560.59375 C 618.699219 562.734375 610.058594 567.871094 604.441406 576.910156 L 594.835938 570.945312 C 602.246094 559.070312 613.484375 552.328125 626.164062 549.546875 C 640.238281 546.46875 656.15625 548.398438 670.417969 553.585938 Z M 666.566406 564.179688 " fill-opacity="1" fill-rule="nonzero"/><path fill="#66241c" d="M 656.933594 313.671875 C 662.042969 310.996094 666.941406 308.695312 671.542969 306.824219 C 692.730469 298.183594 713.734375 295.105469 732.0625 298.585938 C 751.859375 302.328125 768.261719 313.378906 778.480469 332.851562 C 779.738281 335.257812 780.808594 337.53125 781.691406 339.671875 C 793.117188 367.679688 787.820312 396.863281 771.6875 423.050781 L 771.632812 423.050781 C 755.042969 449.984375 726.628906 473.820312 693.589844 489.28125 L 693.589844 489.335938 L 692.730469 489.734375 C 650.753906 509.261719 605.324219 521.941406 569.148438 527.210938 C 528.054688 533.203125 496.429688 528.308594 488.992188 512.445312 L 488.964844 512.417969 L 488.910156 512.445312 C 478.554688 490.191406 498.675781 455.765625 529.5 421.417969 C 570.40625 375.808594 631.167969 327.207031 656.933594 313.671875 Z M 682.191406 333.039062 C 677.910156 334.777344 673.84375 336.648438 670.015625 338.683594 C 646.257812 351.148438 589.429688 396.863281 550.554688 440.167969 C 526.769531 466.675781 510.019531 490.617188 514.59375 500.460938 L 514.675781 500.703125 C 517.136719 504.101562 537.042969 503.296875 565.136719 499.203125 C 598.792969 494.28125 641.28125 482.40625 680.746094 464.054688 L 681.601562 463.65625 L 681.628906 463.707031 C 709.828125 450.519531 733.828125 430.566406 747.582031 408.230469 L 747.527344 408.203125 C 759.085938 389.453125 763.097656 369.097656 755.417969 350.292969 C 754.695312 348.5 754.027344 347.054688 753.441406 345.902344 C 747.605469 334.804688 738.1875 328.492188 726.816406 326.351562 C 714.027344 323.917969 698.484375 326.402344 682.191406 333.039062 Z M 682.191406 333.039062 " fill-opacity="1" fill-rule="nonzero"/><path fill="#a3d9f1" d="M 663.460938 326.191406 C 707.847656 302.917969 752.421875 305.378906 768.582031 344.996094 C 788.597656 394.078125 746.1875 449.078125 687.59375 476.496094 C 605.9375 514.71875 510.875 526.0625 501.753906 506.453125 C 483.398438 466.972656 621.722656 348.097656 663.460938 326.191406 Z M 663.460938 326.191406 " fill-opacity="1" fill-rule="evenodd"/><path fill="#54afe8" d="M 636.171875 365.914062 C 672.023438 347.109375 708.089844 349.085938 721.117188 381.105469 C 737.277344 420.777344 700.464844 463.679688 653.269531 486.152344 C 587.558594 517.472656 510.554688 526.410156 503.0625 510.359375 C 488.1875 478.5 602.433594 383.621094 636.171875 365.914062 Z M 636.171875 365.914062 " fill-opacity="1" fill-rule="evenodd"/><path fill="#66241c" d="M 766.789062 323.355469 C 742.042969 372.386719 715.472656 387.339844 678.980469 407.855469 C 669.617188 413.125 659.582031 418.769531 649.226562 425.1875 L 501.058594 516.859375 L 495.117188 507.257812 L 643.289062 415.585938 C 654.390625 408.710938 664.265625 403.175781 673.441406 397.984375 C 708.195312 378.429688 733.507812 364.199219 756.703125 318.273438 Z M 766.789062 323.355469 " fill-opacity="1" fill-rule="nonzero"/><path fill="#66241c" d="M 738.484375 458.304688 C 715.582031 460.042969 697.949219 460.445312 683.101562 455.683594 C 667.742188 450.761719 655.945312 440.625 645.535156 421.417969 L 655.488281 416.015625 C 664.371094 432.386719 674.109375 440.917969 686.550781 444.902344 C 699.527344 449.050781 716.007812 448.621094 737.628906 446.988281 Z M 738.484375 458.304688 " fill-opacity="1" fill-rule="nonzero"/><path fill="#66241c" d="M 584.265625 287.722656 L 629.269531 302.972656 C 634.566406 304.765625 638.070312 309.363281 638.765625 314.554688 C 643.367188 337.746094 645.160156 360.671875 644.867188 383.40625 C 644.597656 406.304688 642.246094 428.90625 638.6875 451.351562 C 637.910156 456.296875 634.644531 460.203125 630.390625 462.078125 L 591.863281 480.988281 C 584.882812 484.414062 576.425781 481.496094 573.003906 474.515625 C 572.09375 472.667969 571.636719 470.742188 571.585938 468.816406 L 565.644531 301.609375 C 565.378906 293.824219 571.476562 287.269531 579.261719 287.003906 C 580.976562 286.949219 582.6875 287.214844 584.265625 287.722656 Z M 612.386719 327.097656 L 594.566406 321.054688 L 598.980469 446.054688 L 611.878906 439.714844 C 614.632812 420.855469 616.425781 401.972656 616.640625 383.058594 C 616.855469 364.523438 615.597656 345.878906 612.386719 327.097656 Z M 612.386719 327.097656 " fill-opacity="1" fill-rule="nonzero"/><path fill="#8c98a8" d="M 579.71875 301.125 C 594.726562 306.207031 609.710938 311.289062 624.71875 316.375 C 633.816406 361.367188 631.703125 405.449219 624.71875 449.15625 C 611.691406 455.550781 598.660156 461.941406 585.628906 468.335938 C 583.652344 412.589844 581.699219 356.84375 579.71875 301.125 Z M 579.71875 301.125 " fill-opacity="1" fill-rule="evenodd"/><path fill="#b2bfd1" d="M 629.109375 345.503906 C 631.785156 371.957031 631.035156 398.144531 628.117188 424.171875 C 615.0625 427.542969 600.265625 430.058594 584.320312 431.476562 L 581.003906 337.691406 C 598.632812 339.054688 614.925781 341.757812 629.109375 345.503906 Z M 629.109375 345.503906 " fill-opacity="1" fill-rule="evenodd"/><path fill="#66241c" d="M 591.675781 274.484375 C 602.164062 319.421875 607.488281 375.890625 606.394531 431.394531 C 605.347656 483.019531 598.742188 533.953125 585.496094 574.371094 C 573.164062 612.03125 554.085938 644.800781 525.324219 668.367188 C 496.375 692.09375 458.195312 706.191406 408.003906 706.191406 C 357.808594 706.191406 319.628906 692.09375 290.679688 668.367188 C 261.945312 644.800781 242.871094 612.058594 230.507812 574.371094 C 217.265625 533.953125 210.65625 483.019531 209.613281 431.394531 C 208.515625 375.890625 213.839844 319.421875 224.328125 274.484375 C 233.183594 236.445312 261.304688 208.707031 298.492188 191.160156 C 330.492188 176.046875 369.339844 168.476562 407.976562 168.476562 C 446.636719 168.476562 485.460938 176.046875 517.457031 191.132812 C 554.703125 208.707031 582.820312 236.445312 591.675781 274.484375 Z M 578.140625 430.832031 C 579.210938 377.761719 574.097656 323.808594 564.09375 280.902344 C 557.402344 252.175781 535.117188 230.75 505.417969 216.730469 C 477.324219 203.464844 442.757812 196.832031 408.003906 196.832031 C 373.246094 196.832031 338.679688 203.464844 310.585938 216.730469 C 280.890625 230.75 258.601562 252.203125 251.914062 280.902344 C 241.90625 323.835938 236.796875 377.761719 237.867188 430.832031 C 238.828125 479.757812 245.035156 527.828125 257.425781 565.625 C 268.179688 598.472656 284.472656 626.746094 308.605469 646.539062 C 332.554688 666.171875 364.847656 677.835938 408.003906 677.835938 C 451.160156 677.835938 483.453125 666.171875 507.398438 646.539062 C 531.558594 626.746094 547.824219 598.472656 558.582031 565.625 C 570.96875 527.828125 577.175781 479.757812 578.140625 430.832031 Z M 578.140625 430.832031 " fill-opacity="1" fill-rule="nonzero"/><path fill="#ffcc00" d="M 577.898438 277.695312 C 597.644531 362.300781 598.714844 488.636719 572.066406 569.984375 C 548.949219 640.519531 501.378906 691.988281 408.03125 691.988281 C 314.679688 691.988281 267.109375 640.519531 243.992188 569.984375 C 217.34375 488.636719 218.414062 362.300781 238.160156 277.695312 C 267.644531 150.980469 548.359375 150.980469 577.898438 277.695312 Z M 577.898438 277.695312 " fill-opacity="1" fill-rule="evenodd"/><path fill="#fff68f" d="M 577.898438 277.695312 C 592.023438 338.335938 596.492188 420.105469 588.144531 491.660156 C 586.058594 411.839844 581.644531 343.550781 565.75 283.472656 C 553.898438 246.503906 528.910156 216.597656 494.691406 196.75 C 536.242188 211.808594 568.855469 238.960938 577.898438 277.695312 Z M 577.898438 277.695312 " fill-opacity="1" fill-rule="evenodd"/><path fill="#f59520" d="M 301.117188 643.195312 C 279.898438 622.894531 265.128906 596.4375 255.042969 566.425781 C 228.394531 487.195312 229.464844 364.148438 249.210938 281.734375 C 254.9375 257.765625 270.160156 238.425781 291.191406 223.792969 C 316.582031 206.085938 314.492188 224.542969 306.519531 242.945312 C 265.960938 336.730469 274.574219 507.738281 317.652344 635.597656 C 325.328125 658.46875 313.261719 654.804688 301.117188 643.195312 Z M 301.117188 643.195312 " fill-opacity="1" fill-rule="evenodd"/><path fill="#66241c" d="M 228.15625 494.976562 C 230.375 513.0625 233.425781 530.449219 237.359375 546.605469 C 270.5625 563.882812 309.542969 581.914062 364.953125 583.894531 L 408.03125 613.050781 L 451.105469 583.894531 C 506.515625 581.941406 545.496094 563.882812 578.703125 546.605469 C 582.632812 530.449219 585.683594 513.0625 587.90625 494.976562 C 548.011719 525.019531 483.078125 546.148438 408.054688 546.148438 C 332.980469 546.148438 268.046875 525.019531 228.15625 494.976562 Z M 562.300781 595.261719 C 536.453125 652.476562 489.820312 691.988281 408.03125 691.988281 C 326.238281 691.988281 279.605469 652.476562 253.757812 595.261719 C 278.535156 611.710938 315.375 622.304688 356.152344 624.015625 L 408.03125 662.804688 L 459.90625 624.015625 C 500.683594 622.304688 537.5 611.710938 562.300781 595.261719 Z M 562.300781 595.261719 " fill-opacity="1" fill-rule="evenodd"/><path fill="#66241c" d="M 231.015625 499.820312 C 231.980469 507.175781 233.105469 514.398438 234.363281 521.433594 C 235.804688 529.589844 237.464844 537.484375 239.285156 545.078125 C 255.578125 553.53125 273.265625 562.144531 293.515625 568.886719 C 314.144531 575.734375 337.554688 580.710938 365.035156 581.671875 L 365.675781 581.699219 L 408.03125 610.375 L 450.382812 581.699219 L 451.023438 581.671875 C 478.503906 580.710938 501.886719 575.734375 522.542969 568.886719 C 542.796875 562.171875 560.480469 553.558594 576.773438 545.078125 C 578.59375 537.507812 580.226562 529.589844 581.699219 521.433594 C 582.957031 514.398438 584.050781 507.148438 585.042969 499.820312 C 564.761719 514.15625 538.753906 526.328125 508.710938 534.863281 C 478.664062 543.421875 444.550781 548.398438 408.054688 548.398438 C 371.5625 548.398438 337.449219 543.421875 307.402344 534.863281 C 277.304688 526.300781 251.296875 514.15625 231.015625 499.820312 Z M 229.972656 522.207031 C 228.421875 513.433594 227.085938 504.421875 225.960938 495.246094 L 225.320312 490.054688 L 229.492188 493.210938 C 249.878906 508.566406 276.929688 521.59375 308.582031 530.582031 C 338.253906 539.035156 371.964844 543.929688 408.003906 543.929688 C 444.070312 543.929688 477.78125 539.007812 507.425781 530.582031 C 539.078125 521.566406 566.125 508.566406 586.511719 493.210938 L 590.6875 490.054688 L 590.046875 495.246094 C 588.921875 504.421875 587.582031 513.433594 586.03125 522.207031 C 584.507812 530.714844 582.769531 539.0625 580.816406 547.113281 L 580.574219 548.101562 L 579.691406 548.558594 C 563.050781 557.222656 544.910156 566.105469 523.878906 573.085938 C 503.039062 580.015625 479.4375 585.042969 451.773438 586.085938 L 407.976562 615.722656 L 364.230469 586.085938 C 336.566406 585.042969 312.96875 580.015625 292.125 573.085938 C 271.097656 566.105469 252.984375 557.222656 236.316406 548.558594 L 235.433594 548.101562 L 235.191406 547.113281 C 233.210938 539.035156 231.472656 530.714844 229.972656 522.207031 Z M 564.308594 596.171875 C 551.222656 625.140625 532.84375 649.644531 507.371094 666.921875 C 481.902344 684.203125 449.367188 694.234375 408.003906 694.234375 C 366.640625 694.234375 334.105469 684.203125 308.632812 666.921875 C 283.136719 649.644531 264.78125 625.140625 251.699219 596.171875 L 248.515625 589.136719 L 254.964844 593.414062 C 267.242188 601.574219 282.546875 608.261719 299.886719 613.128906 C 317.035156 617.945312 336.164062 620.96875 356.230469 621.796875 L 356.925781 621.824219 L 408.03125 660.019531 L 459.132812 621.824219 L 459.828125 621.796875 C 479.894531 620.96875 498.996094 617.945312 516.175781 613.128906 C 533.484375 608.261719 548.816406 601.574219 561.097656 593.414062 L 567.542969 589.136719 Z M 504.882812 663.257812 C 527.625 647.851562 544.5625 626.425781 557.054688 601.121094 C 545.660156 607.726562 532.199219 613.238281 517.351562 617.410156 C 500.09375 622.25 480.855469 625.300781 460.683594 626.210938 L 408.003906 665.585938 L 355.320312 626.210938 C 335.148438 625.328125 315.9375 622.277344 298.65625 617.410156 C 283.804688 613.238281 270.347656 607.726562 258.949219 601.121094 C 271.445312 626.425781 288.378906 647.824219 311.121094 663.257812 C 335.871094 680.03125 367.574219 689.765625 408.003906 689.765625 C 448.429688 689.765625 480.136719 680.03125 504.882812 663.257812 Z M 504.882812 663.257812 " fill-opacity="1" fill-rule="nonzero"/><path fill="#66241c" d="M 275.03125 339.992188 C 273.265625 353.046875 272.328125 367.542969 272.328125 382.285156 C 272.328125 396.703125 273.15625 411.441406 274.949219 425.375 C 276.449219 437.039062 294.132812 446.617188 319.363281 453.570312 C 344.40625 460.445312 376.082031 463.894531 408.03125 463.894531 C 439.976562 463.894531 471.652344 460.445312 496.695312 453.570312 C 521.925781 446.617188 539.613281 437.039062 541.109375 425.375 C 542.902344 411.414062 543.757812 396.703125 543.730469 382.285156 C 543.707031 367.542969 542.796875 353.046875 541.03125 339.992188 C 539.371094 327.660156 521.765625 317.628906 496.722656 310.433594 C 471.601562 303.210938 439.894531 299.601562 408.054688 299.601562 C 376.191406 299.601562 344.484375 303.210938 319.390625 310.433594 C 294.292969 317.628906 276.6875 327.660156 275.03125 339.992188 Z M 244.101562 382.285156 C 244.128906 366.101562 245.117188 350.34375 247.042969 336.222656 C 250.46875 310.96875 275.9375 293.476562 311.605469 283.203125 C 339.269531 275.234375 373.730469 271.246094 408.03125 271.246094 C 442.328125 271.246094 476.765625 275.234375 504.457031 283.203125 C 540.121094 293.476562 565.589844 310.96875 569.015625 336.222656 C 570.914062 350.316406 571.933594 366.101562 571.957031 382.285156 C 571.984375 397.878906 571.050781 413.820312 569.121094 428.933594 C 565.9375 453.757812 540.199219 470.878906 504.132812 480.800781 C 476.414062 488.425781 442.117188 492.25 408.054688 492.25 C 373.996094 492.25 339.695312 488.425781 311.980469 480.800781 C 275.886719 470.878906 250.175781 453.757812 246.988281 428.933594 C 245.011719 413.820312 244.074219 397.878906 244.101562 382.285156 Z M 244.101562 382.285156 " fill-opacity="1" fill-rule="nonzero"/><path fill="#66241c" d="M 261.035156 338.121094 C 257.425781 364.894531 257.15625 397.664062 260.957031 427.167969 C 269.679688 495.058594 546.378906 495.058594 555.101562 427.167969 C 558.875 397.664062 558.632812 364.894531 555.023438 338.121094 C 545.472656 267.851562 270.535156 267.851562 261.035156 338.121094 Z M 261.035156 338.121094 " fill-opacity="1" fill-rule="evenodd"/><path fill="#69c6ff" d="M 374.800781 434.042969 C 354.574219 420 328.378906 418.394531 310.347656 438.003906 C 291.429688 404.164062 286.960938 324.15625 338.253906 325.496094 C 387.453125 326.804688 384.804688 399.082031 374.800781 434.042969 Z M 374.800781 434.042969 " fill-opacity="1" fill-rule="evenodd"/><path fill="#69c6ff" d="M 441.207031 434.042969 C 461.433594 420 487.625 418.394531 505.660156 438.003906 C 524.574219 404.164062 529.042969 324.15625 477.753906 325.496094 C 428.578125 326.804688 431.199219 399.082031 441.207031 434.042969 Z M 441.207031 434.042969 " fill-opacity="1" fill-rule="evenodd"/><path fill="#fff68f" d="M 522.035156 227.164062 C 528.9375 223.792969 541.429688 231.953125 549.964844 245.378906 C 558.5 258.808594 559.8125 272.449219 552.910156 275.820312 C 546.007812 279.191406 533.511719 271.03125 524.976562 257.605469 C 516.441406 244.175781 515.128906 230.535156 522.035156 227.164062 Z M 522.035156 227.164062 " fill-opacity="1" fill-rule="evenodd"/><path fill="#fff68f" d="M 507.078125 255.894531 C 510.207031 254.367188 515.90625 258.058594 519.785156 264.183594 C 523.664062 270.3125 524.253906 276.515625 521.125 278.042969 C 517.992188 279.566406 512.292969 275.875 508.414062 269.75 C 504.535156 263.648438 503.921875 257.445312 507.078125 255.894531 Z M 507.078125 255.894531 " fill-opacity="1" fill-rule="evenodd"/><path fill="#66241c" d="M 315.324219 113.800781 L 315.027344 113.882812 C 314.949219 113.933594 314.867188 114.015625 314.816406 114.121094 C 314.734375 114.28125 314.679688 114.46875 314.734375 114.628906 L 347.484375 231.980469 C 347.507812 232.113281 347.644531 232.246094 347.777344 232.328125 C 347.9375 232.40625 348.097656 232.460938 348.257812 232.40625 L 348.285156 232.40625 C 348.417969 232.378906 348.554688 232.246094 348.632812 232.113281 C 348.714844 231.953125 348.765625 231.765625 348.714844 231.605469 L 316.125 114.871094 L 315.882812 114.148438 C 315.832031 114.042969 315.75 113.960938 315.644531 113.90625 C 315.5625 113.855469 315.429688 113.800781 315.324219 113.800781 Z M 311.335938 99.25 C 315.429688 98.152344 319.628906 98.820312 323.054688 100.746094 C 326.558594 102.726562 329.316406 106.042969 330.492188 110.191406 L 363.242188 227.566406 C 364.390625 231.738281 363.777344 235.992188 361.796875 239.46875 C 359.949219 242.730469 356.925781 245.355469 353.128906 246.636719 C 352.621094 246.851562 352.113281 246.984375 351.578125 247.066406 C 347.644531 247.976562 343.683594 247.28125 340.390625 245.433594 C 336.886719 243.453125 334.132812 240.136719 332.953125 235.9375 L 300.207031 118.640625 C 299.054688 114.46875 299.671875 110.214844 301.652344 106.738281 C 303.632812 103.234375 306.949219 100.480469 311.148438 99.300781 Z M 311.335938 99.25 " fill-opacity="1" fill-rule="nonzero"/><path fill="#66241c" d="M 313.15625 106.578125 C 317.488281 105.375 322.011719 107.914062 323.242188 112.25 L 355.992188 229.597656 C 357.195312 233.933594 354.652344 238.453125 350.320312 239.65625 C 345.984375 240.859375 341.460938 238.320312 340.257812 233.984375 L 307.511719 116.636719 C 306.253906 112.300781 308.820312 107.78125 313.15625 106.578125 Z M 313.15625 106.578125 " fill-opacity="1" fill-rule="evenodd"/><path fill="#66241c" d="M 307.109375 71.5625 C 317.757812 69.050781 328.460938 71.324219 337.183594 77.046875 C 345.691406 82.636719 352.351562 91.546875 355.082031 102.457031 L 355.160156 102.808594 C 357.785156 113.640625 356.125 124.472656 351.253906 133.21875 C 346.226562 142.289062 337.796875 149.242188 327.148438 151.890625 L 326.613281 152.027344 C 315.964844 154.539062 305.261719 152.265625 296.539062 146.542969 C 288.03125 140.953125 281.371094 132.042969 278.640625 121.128906 L 278.5625 120.78125 C 275.9375 109.976562 277.625 99.167969 282.496094 90.367188 L 282.46875 90.339844 C 287.496094 81.273438 295.925781 74.320312 306.574219 71.671875 Z M 324.605469 95.851562 C 320.914062 93.417969 316.5 92.453125 312.21875 93.445312 L 312.03125 93.496094 C 307.859375 94.542969 304.488281 97.375 302.398438 101.148438 L 302.347656 101.148438 C 300.097656 105.1875 299.351562 110.269531 300.609375 115.460938 L 300.660156 115.621094 C 301.972656 120.863281 305.101562 125.089844 309.089844 127.710938 C 312.78125 130.144531 317.195312 131.132812 321.476562 130.117188 L 321.664062 130.0625 C 325.835938 129.019531 329.207031 126.1875 331.296875 122.414062 C 333.542969 118.347656 334.320312 113.238281 333.089844 108.101562 L 333.035156 107.941406 C 331.722656 102.699219 328.59375 98.445312 324.605469 95.851562 Z M 324.605469 95.851562 " fill-opacity="1" fill-rule="nonzero"/><path fill="#ffcc00" d="M 309.492188 82.53125 C 324.5 78.894531 339.964844 89.03125 344.03125 105.1875 C 348.097656 121.34375 339.1875 137.394531 324.179688 141.03125 C 309.167969 144.667969 293.703125 134.53125 289.636719 118.375 C 285.597656 102.246094 294.480469 86.195312 309.492188 82.53125 Z M 309.492188 82.53125 " fill-opacity="1" fill-rule="evenodd"/><path fill="#fff68f" d="M 320.59375 86.996094 C 328.136719 85.179688 335.925781 90.261719 337.957031 98.394531 C 339.992188 106.523438 335.523438 114.578125 327.976562 116.421875 C 320.433594 118.242188 312.648438 113.160156 310.613281 105.027344 C 308.554688 96.894531 313.023438 88.84375 320.59375 86.996094 Z M 320.59375 86.996094 " fill-opacity="1" fill-rule="evenodd"/><path fill="#66241c" d="M 501.003906 113.882812 L 500.710938 113.800781 C 500.601562 113.800781 500.46875 113.855469 500.363281 113.90625 C 500.253906 113.960938 500.175781 114.042969 500.121094 114.148438 L 499.878906 114.871094 L 467.292969 231.605469 C 467.238281 231.765625 467.292969 231.953125 467.371094 232.113281 C 467.453125 232.246094 467.585938 232.378906 467.71875 232.40625 L 467.746094 232.40625 C 467.90625 232.433594 468.070312 232.40625 468.230469 232.328125 C 468.363281 232.246094 468.496094 232.113281 468.523438 231.980469 L 501.296875 114.628906 C 501.351562 114.46875 501.296875 114.28125 501.21875 114.121094 C 501.164062 114.015625 501.085938 113.933594 501.003906 113.882812 Z M 492.976562 100.746094 C 496.402344 98.820312 500.574219 98.179688 504.695312 99.25 L 504.882812 99.300781 C 509.085938 100.480469 512.402344 103.234375 514.382812 106.738281 C 516.335938 110.214844 516.976562 114.46875 515.828125 118.640625 L 483.078125 235.992188 C 481.902344 240.164062 479.144531 243.507812 475.640625 245.488281 C 472.375 247.332031 468.390625 248 464.457031 247.117188 C 463.921875 247.039062 463.414062 246.878906 462.90625 246.664062 C 459.105469 245.378906 456.082031 242.757812 454.234375 239.496094 C 452.28125 236.019531 451.640625 231.765625 452.792969 227.59375 L 485.539062 110.214844 C 486.714844 106.042969 489.472656 102.726562 492.976562 100.746094 Z M 492.976562 100.746094 " fill-opacity="1" fill-rule="nonzero"/><path fill="#66241c" d="M 502.875 106.578125 C 498.542969 105.375 494.019531 107.914062 492.789062 112.25 L 460.042969 229.597656 C 458.835938 233.933594 461.378906 238.453125 465.714844 239.65625 C 470.046875 240.859375 474.570312 238.320312 475.773438 233.984375 L 508.523438 116.636719 C 509.753906 112.300781 507.210938 107.78125 502.875 106.578125 Z M 502.875 106.578125 " fill-opacity="1" fill-rule="evenodd"/><path fill="#66241c" d="M 503.785156 93.445312 C 499.53125 92.429688 495.089844 93.417969 491.398438 95.851562 C 487.414062 98.472656 484.28125 102.699219 482.972656 107.941406 L 482.917969 108.101562 C 481.660156 113.238281 482.4375 118.347656 484.710938 122.414062 C 486.796875 126.1875 490.167969 129.019531 494.34375 130.0625 L 494.554688 130.117188 C 498.808594 131.132812 503.226562 130.144531 506.945312 127.710938 C 510.929688 125.089844 514.0625 120.863281 515.371094 115.621094 L 515.425781 115.460938 C 516.683594 110.269531 515.933594 105.1875 513.6875 101.148438 L 513.632812 101.148438 C 511.546875 97.375 508.175781 94.542969 504 93.496094 Z M 478.851562 77.046875 C 487.574219 71.324219 498.273438 69.074219 508.898438 71.5625 L 509.433594 71.695312 C 520.082031 74.371094 528.507812 81.300781 533.539062 90.367188 L 533.511719 90.394531 C 538.382812 99.195312 540.066406 110.003906 537.445312 120.808594 L 537.363281 121.15625 C 534.636719 132.070312 527.972656 140.976562 519.464844 146.570312 C 510.742188 152.292969 500.039062 154.539062 489.417969 152.050781 L 488.882812 151.917969 C 478.234375 149.242188 469.808594 142.316406 464.777344 133.246094 C 459.90625 124.5 458.25 113.667969 460.871094 102.832031 L 460.953125 102.484375 C 463.707031 91.519531 470.34375 82.609375 478.851562 77.046875 Z M 478.851562 77.046875 " fill-opacity="1" fill-rule="nonzero"/><path fill="#ffcc00" d="M 506.515625 82.53125 C 491.507812 78.894531 476.042969 89.03125 471.976562 105.1875 C 467.90625 121.34375 476.816406 137.394531 491.828125 141.03125 C 506.835938 144.667969 522.300781 134.53125 526.367188 118.375 C 530.433594 102.246094 521.550781 86.195312 506.515625 82.53125 Z M 506.515625 82.53125 " fill-opacity="1" fill-rule="evenodd"/><path fill="#fff68f" d="M 512.535156 89.699219 C 504.992188 87.878906 497.203125 92.964844 495.171875 101.09375 C 493.136719 109.226562 497.605469 117.277344 505.152344 119.125 C 512.695312 120.941406 520.480469 115.859375 522.515625 107.730469 C 524.546875 99.597656 520.082031 91.546875 512.535156 89.699219 Z M 512.535156 89.699219 " fill-opacity="1" fill-rule="evenodd"/><path fill="#66241c" d="M 365.195312 698.621094 L 408.003906 735.132812 L 450.839844 698.621094 L 450.839844 686.742188 L 408.003906 690.863281 L 365.195312 686.742188 Z M 365.195312 698.621094 " fill-opacity="1" fill-rule="evenodd"/><g clip-path="url(#11ce915c76)"><path fill="#66241c" d="M 367.414062 697.605469 L 408.003906 732.21875 L 448.589844 697.605469 L 448.589844 689.203125 C 403.160156 693.566406 412.84375 693.566406 367.386719 689.203125 L 367.386719 697.605469 Z M 406.558594 736.820312 L 362.945312 699.636719 L 362.945312 684.308594 L 408.003906 688.617188 L 453.058594 684.308594 L 453.058594 699.636719 L 408.003906 738.050781 Z M 406.558594 736.820312 " fill-opacity="1" fill-rule="nonzero"/></g></svg>