<svg width="30" height="40" viewBox="0 0 30 40" fill="none" xmlns="http://www.w3.org/2000/svg">
<path d="M0.583008 6.58333V33.4167C0.583008 33.925 0.784942 34.4125 1.14439 34.772C1.50383 35.1314 1.99134 35.3333 2.49967 35.3333H8.24967V31.5H4.41634V8.5H8.24967V4.66667H2.49967C1.99134 4.66667 1.50383 4.8686 1.14439 5.22805C0.784942 5.58749 0.583008 6.075 0.583008 6.58333ZM27.8802 4.72417L12.5468 0.890833C12.2644 0.820378 11.9695 0.815201 11.6848 0.875694C11.4 0.936188 11.1327 1.06076 10.9033 1.23996C10.6738 1.41917 10.4882 1.64828 10.3605 1.90993C10.2328 2.17157 10.1664 2.45886 10.1663 2.75V37.25C10.1657 37.5414 10.2316 37.8291 10.359 38.0911C10.4865 38.3531 10.6721 38.5826 10.9018 38.7619C11.1314 38.9413 11.399 39.0658 11.6841 39.126C11.9692 39.1862 12.2643 39.1804 12.5468 39.1092L27.8802 35.2758C28.295 35.1724 28.6633 34.9332 28.9266 34.5963C29.1898 34.2594 29.3329 33.8442 29.333 33.4167V6.58333C29.3329 6.1558 29.1898 5.74057 28.9266 5.4037C28.6633 5.06682 28.295 4.82763 27.8802 4.72417ZM19.7497 20.3603C19.7276 20.8538 19.516 21.3198 19.159 21.6612C18.802 22.0026 18.327 22.1932 17.833 22.1932C17.339 22.1932 16.864 22.0026 16.507 21.6612C16.15 21.3198 15.9384 20.8538 15.9163 20.3603V19.6377C15.9166 19.1294 16.1188 18.642 16.4784 18.2827C16.838 17.9235 17.3256 17.7218 17.834 17.722C18.3423 17.7223 18.8297 17.9245 19.189 18.2841C19.5482 18.6437 19.7499 19.1313 19.7497 19.6397V20.3603Z" fill="black"/>
</svg>
