<svg width="40" height="41" viewBox="0 0 40 41" fill="none" xmlns="http://www.w3.org/2000/svg">
<path d="M36.3422 17.236H34.9997V17.1668H19.9997V23.8335H29.4188C28.0447 27.7143 24.3522 30.5002 19.9997 30.5002C14.4772 30.5002 9.99967 26.0227 9.99967 20.5002C9.99967 14.9777 14.4772 10.5002 19.9997 10.5002C22.5488 10.5002 24.868 11.4618 26.6338 13.0327L31.348 8.3185C28.3713 5.54433 24.3897 3.8335 19.9997 3.8335C10.7955 3.8335 3.33301 11.296 3.33301 20.5002C3.33301 29.7043 10.7955 37.1668 19.9997 37.1668C29.2038 37.1668 36.6663 29.7043 36.6663 20.5002C36.6663 19.3827 36.5513 18.2918 36.3422 17.236Z" fill="#FFC107"/>
<path d="M5.25488 12.7427L10.7307 16.7585C12.2124 13.0902 15.8007 10.5002 19.9999 10.5002C22.5491 10.5002 24.8682 11.4618 26.6341 13.0327L31.3482 8.3185C28.3716 5.54433 24.3899 3.8335 19.9999 3.8335C13.5982 3.8335 8.04655 7.44766 5.25488 12.7427Z" fill="#FF3D00"/>
<path d="M19.9996 37.167C24.3046 37.167 28.2163 35.5195 31.1738 32.8403L26.0154 28.4753C24.2862 29.7912 22.1726 30.5027 19.9996 30.5003C15.6646 30.5003 11.9838 27.7362 10.5971 23.8787L5.16211 28.0662C7.92044 33.4637 13.5221 37.167 19.9996 37.167Z" fill="#4CAF50"/>
<path d="M36.3425 17.2362H35V17.167H20V23.8337H29.4192C28.7618 25.6807 27.5778 27.2946 26.0133 28.4762L26.0158 28.4745L31.1742 32.8395C30.8092 33.1712 36.6667 28.8337 36.6667 20.5003C36.6667 19.3828 36.5517 18.292 36.3425 17.2362Z" fill="#1976D2"/>
</svg>
