<svg width="34" height="37" viewBox="0 0 34 37" fill="none" xmlns="http://www.w3.org/2000/svg">
<path d="M23.2497 25.7674H10.7497C10.1971 25.7674 9.66724 25.9589 9.27654 26.2996C8.88583 26.6403 8.66634 27.1024 8.66634 27.5843C8.66634 28.0662 8.88583 28.5283 9.27654 28.869C9.66724 29.2097 10.1971 29.4012 10.7497 29.4012H23.2497C23.8022 29.4012 24.3321 29.2097 24.7228 28.869C25.1135 28.5283 25.333 28.0662 25.333 27.5843C25.333 27.1024 25.1135 26.6403 24.7228 26.2996C24.3321 25.9589 23.8022 25.7674 23.2497 25.7674ZM10.7497 14.8663H12.833C13.3855 14.8663 13.9154 14.6749 14.3061 14.3341C14.6968 13.9934 14.9163 13.5313 14.9163 13.0494C14.9163 12.5676 14.6968 12.1054 14.3061 11.7647C13.9154 11.424 13.3855 11.2326 12.833 11.2326H10.7497C10.1971 11.2326 9.66724 11.424 9.27654 11.7647C8.88583 12.1054 8.66634 12.5676 8.66634 13.0494C8.66634 13.5313 8.88583 13.9934 9.27654 14.3341C9.66724 14.6749 10.1971 14.8663 10.7497 14.8663ZM23.2497 18.5H10.7497C10.1971 18.5 9.66724 18.6914 9.27654 19.0321C8.88583 19.3729 8.66634 19.835 8.66634 20.3169C8.66634 20.7987 8.88583 21.2608 9.27654 21.6016C9.66724 21.9423 10.1971 22.1337 10.7497 22.1337H23.2497C23.8022 22.1337 24.3321 21.9423 24.7228 21.6016C25.1135 21.2608 25.333 20.7987 25.333 20.3169C25.333 19.835 25.1135 19.3729 24.7228 19.0321C24.3321 18.6914 23.8022 18.5 23.2497 18.5ZM33.0622 24.4775C32.864 24.3121 32.6304 24.1824 32.3747 24.0959C32.126 23.9976 31.8561 23.9467 31.583 23.9467C31.3099 23.9467 31.04 23.9976 30.7913 24.0959C30.5356 24.1824 30.302 24.3121 30.1038 24.4775C29.9214 24.6551 29.7736 24.8577 29.6663 25.077C29.5068 25.4079 29.4632 25.7726 29.5411 26.125C29.6189 26.4775 29.8148 26.8019 30.1038 27.0574C30.2985 27.2258 30.5294 27.359 30.7832 27.4494C31.037 27.5399 31.3088 27.5857 31.583 27.5843C31.8553 27.5814 32.1242 27.532 32.3747 27.4389C32.6262 27.3454 32.8585 27.2165 33.0622 27.0574C33.3512 26.8019 33.5471 26.4775 33.6249 26.125C33.7028 25.7726 33.6592 25.4079 33.4997 25.077C33.3924 24.8577 33.2446 24.6551 33.0622 24.4775ZM33.6663 12.9404C33.6448 12.7735 33.6029 12.609 33.5413 12.4499V12.2863C33.4435 12.0984 33.3096 11.9263 33.1455 11.7776L20.6455 0.876448C20.475 0.733318 20.2777 0.616579 20.0622 0.531245C20 0.523022 19.9368 0.523022 19.8747 0.531245C19.6626 0.426271 19.4291 0.358385 19.1872 0.33139H6.58301C4.9254 0.33139 3.33569 0.905647 2.16359 1.92783C0.991488 2.95001 0.333008 4.33639 0.333008 5.78197V31.218C0.333008 32.6636 0.991488 34.05 2.16359 35.0722C3.33569 36.0943 4.9254 36.6686 6.58301 36.6686H23.2497C23.8022 36.6686 24.3321 36.4772 24.7228 36.1365C25.1135 35.7957 25.333 35.3336 25.333 34.8517C25.333 34.3699 25.1135 33.9078 24.7228 33.567C24.3321 33.2263 23.8022 33.0349 23.2497 33.0349H6.58301C6.03047 33.0349 5.50057 32.8435 5.10987 32.5027C4.71917 32.162 4.49967 31.6999 4.49967 31.218V5.78197C4.49967 5.30011 4.71917 4.83799 5.10987 4.49726C5.50057 4.15653 6.03047 3.96511 6.58301 3.96511H16.9997V9.41569C16.9997 10.8613 17.6582 12.2477 18.8303 13.2698C20.0024 14.292 21.5921 14.8663 23.2497 14.8663H29.4997V18.5C29.4997 18.9819 29.7192 19.444 30.1099 19.7847C30.5006 20.1254 31.0305 20.3169 31.583 20.3169C32.1355 20.3169 32.6654 20.1254 33.0561 19.7847C33.4468 19.444 33.6663 18.9819 33.6663 18.5V12.9404ZM23.2497 11.2326C22.6971 11.2326 22.1672 11.0411 21.7765 10.7004C21.3858 10.3597 21.1663 9.89755 21.1663 9.41569V6.52688L26.5622 11.2326H23.2497ZM31.583 29.4012C31.0305 29.4012 30.5006 29.5926 30.1099 29.9333C29.7192 30.274 29.4997 30.7362 29.4997 31.218V34.8517C29.4997 35.3336 29.7192 35.7957 30.1099 36.1365C30.5006 36.4772 31.0305 36.6686 31.583 36.6686C32.1355 36.6686 32.6654 36.4772 33.0561 36.1365C33.4468 35.7957 33.6663 35.3336 33.6663 34.8517V31.218C33.6663 30.7362 33.4468 30.274 33.0561 29.9333C32.6654 29.5926 32.1355 29.4012 31.583 29.4012Z" fill="black"/>
</svg>
