<svg width="42" height="42" viewBox="0 0 42 42" fill="none" xmlns="http://www.w3.org/2000/svg">
<path d="M23.1417 0.166626C25.4855 0.172876 26.675 0.185376 27.7021 0.214543L28.1063 0.229126C28.573 0.245793 29.0334 0.266626 29.5896 0.291626C31.8063 0.395793 33.3188 0.745793 34.6459 1.26038C36.0209 1.78954 37.1792 2.50621 38.3375 3.66246C39.3973 4.70357 40.2171 5.96344 40.7396 7.35413C41.2542 8.68121 41.6042 10.1937 41.7084 12.4125C41.7334 12.9666 41.7542 13.427 41.7709 13.8958L41.7834 14.3C41.8146 15.325 41.8271 16.5145 41.8313 18.8583L41.8334 20.4125V23.1416C41.8385 24.6612 41.8225 26.1808 41.7855 27.7L41.773 28.1041C41.7563 28.5729 41.7355 29.0333 41.7105 29.5875C41.6063 31.8062 41.2521 33.3166 40.7396 34.6458C40.2171 36.0365 39.3973 37.2963 38.3375 38.3375C37.2964 39.3972 36.0366 40.217 34.6459 40.7395C33.3188 41.2541 31.8063 41.6041 29.5896 41.7083L28.1063 41.7708L27.7021 41.7833C26.675 41.8125 25.4855 41.827 23.1417 41.8312L21.5875 41.8333H18.8605C17.3402 41.8387 15.8199 41.8227 14.3 41.7854L13.8959 41.7729C13.4013 41.7541 12.9069 41.7326 12.4125 41.7083C10.1959 41.6041 8.68338 41.2541 7.35421 40.7395C5.96428 40.2167 4.70513 39.397 3.66463 38.3375C2.6041 37.2966 1.78361 36.0367 1.26046 34.6458C0.745879 33.3187 0.395879 31.8062 0.291712 29.5875L0.229212 28.1041L0.218796 27.7C0.180392 26.1808 0.163029 24.6612 0.166712 23.1416V18.8583C0.160946 17.3387 0.176225 15.8191 0.212546 14.3L0.227129 13.8958C0.243796 13.427 0.264629 12.9666 0.289629 12.4125C0.393796 10.1937 0.743796 8.68329 1.25838 7.35413C1.78274 5.96287 2.60468 4.70295 3.66671 3.66246C4.70662 2.60319 5.96502 1.78345 7.35421 1.26038C8.68338 0.745793 10.1938 0.395793 12.4125 0.291626C12.9667 0.266626 13.4292 0.245793 13.8959 0.229126L14.3 0.216626C15.8192 0.179611 17.3388 0.163637 18.8584 0.168709L23.1417 0.166626ZM21 10.5833C18.2374 10.5833 15.5879 11.6808 13.6344 13.6343C11.6808 15.5878 10.5834 18.2373 10.5834 21C10.5834 23.7626 11.6808 26.4121 13.6344 28.3657C15.5879 30.3192 18.2374 31.4166 21 31.4166C23.7627 31.4166 26.4122 30.3192 28.3657 28.3657C30.3192 26.4121 31.4167 23.7626 31.4167 21C31.4167 18.2373 30.3192 15.5878 28.3657 13.6343C26.4122 11.6808 23.7627 10.5833 21 10.5833ZM21 14.75C21.8208 14.7498 22.6336 14.9113 23.3919 15.2253C24.1502 15.5393 24.8393 15.9995 25.4198 16.5798C26.0002 17.1601 26.4607 17.849 26.7749 18.6072C27.0892 19.3655 27.251 20.1782 27.2511 20.9989C27.2512 21.8197 27.0897 22.6324 26.7757 23.3908C26.4618 24.1491 26.0015 24.8382 25.4212 25.4186C24.841 25.9991 24.1521 26.4596 23.3938 26.7738C22.6356 27.088 21.8229 27.2498 21.0021 27.25C19.3445 27.25 17.7548 26.5915 16.5827 25.4194C15.4106 24.2473 14.7521 22.6576 14.7521 21C14.7521 19.3424 15.4106 17.7526 16.5827 16.5805C17.7548 15.4084 19.3445 14.75 21.0021 14.75M31.9396 7.45829C31.249 7.45829 30.5866 7.73266 30.0982 8.22104C29.6098 8.70941 29.3355 9.37179 29.3355 10.0625C29.3355 10.7531 29.6098 11.4155 30.0982 11.9039C30.5866 12.3923 31.249 12.6666 31.9396 12.6666C32.6303 12.6666 33.2927 12.3923 33.7811 11.9039C34.2694 11.4155 34.5438 10.7531 34.5438 10.0625C34.5438 9.37179 34.2694 8.70941 33.7811 8.22104C33.2927 7.73266 32.6303 7.45829 31.9396 7.45829Z" fill="white"/>
</svg>
