<svg width="25" height="23" viewBox="0 0 25 23" fill="none" xmlns="http://www.w3.org/2000/svg">
<path d="M12.3088 7.62524L15.875 11.1802V11.0002C15.875 10.1051 15.5194 9.24669 14.8865 8.61376C14.2536 7.98082 13.3951 7.62524 12.5 7.62524H12.3088ZM7.47125 8.52524L9.215 10.269C9.15875 10.5052 9.125 10.7415 9.125 11.0002C9.125 11.8953 9.48058 12.7538 10.1135 13.3867C10.7464 14.0197 11.6049 14.3752 12.5 14.3752C12.7475 14.3752 12.995 14.3415 13.2312 14.2852L14.975 16.029C14.2212 16.4002 13.3888 16.6252 12.5 16.6252C11.0082 16.6252 9.57742 16.0326 8.52252 14.9777C7.46763 13.9228 6.875 12.4921 6.875 11.0002C6.875 10.1115 7.1 9.27899 7.47125 8.52524ZM1.25 2.30399L3.815 4.86899L4.32125 5.37524C2.465 6.83774 1.0025 8.75024 0.125 11.0002C2.07125 15.939 6.875 19.4377 12.5 19.4377C14.2437 19.4377 15.9087 19.1002 17.4275 18.4927L17.9112 18.9652L21.1962 22.2502L22.625 20.8215L2.67875 0.875244M12.5 5.37524C13.9918 5.37524 15.4226 5.96788 16.4775 7.02277C17.5324 8.07766 18.125 9.5084 18.125 11.0002C18.125 11.7202 17.9788 12.4177 17.72 13.0477L21.0163 16.344C22.7038 14.9377 24.0537 13.0927 24.875 11.0002C22.9287 6.06149 18.125 2.56274 12.5 2.56274C10.925 2.56274 9.4175 2.84399 8 3.35024L10.4412 5.76899C11.0825 5.52149 11.7688 5.37524 12.5 5.37524Z" fill="white"/>
</svg>
