<svg width="23" height="21" viewBox="0 0 23 21" fill="none" xmlns="http://www.w3.org/2000/svg">
<path fill-rule="evenodd" clip-rule="evenodd" d="M10.2502 2.33336C8.23894 2.33336 6.31009 3.07525 4.88794 4.39582C3.46579 5.71639 2.66683 7.50746 2.66683 9.37503C2.66683 11.2426 3.46579 13.0337 4.88794 14.3542C6.31009 15.6748 8.23894 16.4167 10.2502 16.4167C12.2614 16.4167 14.1902 15.6748 15.6124 14.3542C17.0345 13.0337 17.8335 11.2426 17.8335 9.37503C17.8335 7.50746 17.0345 5.71639 15.6124 4.39582C14.1902 3.07525 12.2614 2.33336 10.2502 2.33336ZM0.333496 9.37503C0.333631 7.90667 0.711921 6.45963 1.43681 5.15464C2.16169 3.84965 3.21215 2.72455 4.50054 1.8732C5.78893 1.02186 7.2779 0.468958 8.84321 0.260631C10.4085 0.0523044 12.0048 0.194592 13.4988 0.675624C14.9929 1.15666 16.3414 1.96248 17.4318 3.02587C18.5223 4.08926 19.3231 5.37938 19.7674 6.78859C20.2117 8.1978 20.2866 9.68524 19.9859 11.1268C19.6852 12.5684 19.0176 13.9223 18.0388 15.0755L22.2995 19.0319C22.512 19.2362 22.6296 19.5098 22.6269 19.7939C22.6243 20.0779 22.5016 20.3496 22.2853 20.5505C22.069 20.7514 21.7764 20.8653 21.4705 20.8678C21.1646 20.8702 20.8699 20.761 20.6498 20.5637L16.3892 16.6074C14.9269 17.6777 13.1696 18.3441 11.3185 18.5304C9.46739 18.7167 7.59719 18.4152 5.92194 17.6606C4.24669 16.906 2.83408 15.7287 1.84577 14.2634C0.857454 12.7981 0.333371 11.104 0.333496 9.37503ZM9.0835 5.58336C9.0835 5.29605 9.20641 5.0205 9.42521 4.81733C9.644 4.61417 9.94074 4.50003 10.2502 4.50003C11.6425 4.50003 12.9779 5.01365 13.9625 5.92789C14.947 6.84212 15.5002 8.0821 15.5002 9.37503C15.5002 9.66235 15.3772 9.9379 15.1585 10.1411C14.9397 10.3442 14.6429 10.4584 14.3335 10.4584C14.0241 10.4584 13.7273 10.3442 13.5085 10.1411C13.2897 9.9379 13.1668 9.66235 13.1668 9.37503C13.1668 8.65674 12.8595 7.96786 12.3126 7.45995C11.7656 6.95204 11.0237 6.6667 10.2502 6.6667C9.94074 6.6667 9.644 6.55256 9.42521 6.3494C9.20641 6.14623 9.0835 5.87068 9.0835 5.58336Z" fill="black"/>
</svg>
