<svg width="40" height="41" viewBox="0 0 40 41" fill="none" xmlns="http://www.w3.org/2000/svg">
<path d="M5.71429 0.8125C2.5625 0.8125 0 3.33496 0 6.4375V34.5625C0 37.665 2.5625 40.1875 5.71429 40.1875H34.2857C37.4375 40.1875 40 37.665 40 34.5625V6.4375C40 3.33496 37.4375 0.8125 34.2857 0.8125H5.71429ZM34.2857 12.0625C34.2857 15.165 31.7232 17.6875 28.5714 17.6875C27.1964 17.6875 25.9375 17.2129 24.9464 16.4131L17.3304 20.5L24.9464 24.5869C25.9286 23.7871 27.1964 23.3125 28.5714 23.3125C31.7232 23.3125 34.2857 25.835 34.2857 28.9375C34.2857 32.04 31.7232 34.5625 28.5714 34.5625C25.4196 34.5625 22.8571 32.04 22.8571 28.9375C22.8571 28.7178 22.8661 28.5068 22.8929 28.2959L15.5804 24.3672C14.5357 25.4482 13.0625 26.125 11.4286 26.125C8.27679 26.125 5.71429 23.6025 5.71429 20.5C5.71429 17.3975 8.27679 14.875 11.4286 14.875C13.0625 14.875 14.5357 15.5518 15.5804 16.6328L22.8929 12.7041C22.8661 12.4932 22.8571 12.2734 22.8571 12.0625C22.8571 8.95996 25.4196 6.4375 28.5714 6.4375C31.7232 6.4375 34.2857 8.95996 34.2857 12.0625Z" fill="white"/>
</svg>
