<svg width="40" height="41" viewBox="0 0 40 41" fill="none" xmlns="http://www.w3.org/2000/svg">
<path d="M5.71429 0.8125C2.5625 0.8125 0 3.33496 0 6.4375V34.5625C0 37.665 2.5625 40.1875 5.71429 40.1875H34.2857C37.4375 40.1875 40 37.665 40 34.5625V6.4375C40 3.33496 37.4375 0.8125 34.2857 0.8125H5.71429ZM32.2411 8.19531L22.9732 18.6191L33.875 32.8047H25.3393L18.6607 24.2002L11.0089 32.8047H6.76786L16.6786 21.6514L6.22321 8.19531H14.9732L21.0179 16.0615L28 8.19531H32.2411ZM28.8661 30.3086L13.6964 10.5596H11.1696L26.5089 30.3086H28.8571H28.8661Z" fill="white"/>
</svg>
